<svg width="40" height="41" viewBox="0 0 40 41" fill="none" xmlns="http://www.w3.org/2000/svg">
<path fill-rule="evenodd" clip-rule="evenodd" d="M33.8462 35.1609C34.7908 34.3077 35.3846 33.0698 35.3846 31.6923V17.6593C35.3848 16.9464 35.2226 16.2431 34.9105 15.6035C34.5984 14.9639 34.1448 14.4051 33.5846 13.9703L22.8154 5.61814C22.0083 4.99169 21.0185 4.65201 20 4.65201C18.9815 4.65201 17.9917 4.99169 17.1846 5.61814L6.41538 13.9703C5.8548 14.4054 5.40092 14.9647 5.08881 15.6049C4.77671 16.2451 4.61473 16.949 4.61538 17.6624V31.6923C4.61377 32.302 4.73133 32.9062 4.96135 33.4701C5.19138 34.0341 5.52936 34.5468 5.95598 34.979C6.38259 35.4112 6.88949 35.7544 7.4477 35.989C8.00591 36.2235 8.60449 36.3449 9.20923 36.3461H10.7692V25.4871C10.7692 23.8414 11.4176 22.2631 12.5717 21.0994C13.7257 19.9357 15.291 19.2819 16.9231 19.2819H23.0769C24.709 19.2819 26.2743 19.9357 27.4283 21.0994C28.5824 22.2631 29.2308 23.8414 29.2308 25.4871V36.3461H30.7908C31.9631 36.3399 33.0369 35.8932 33.8462 35.1609ZM40 31.6923C40 34.1608 39.0275 36.5283 37.2964 38.2738C35.5653 40.0194 33.2174 41 30.7692 41H9.23077C6.78262 41 4.43474 40.0194 2.70363 38.2738C0.972525 36.5283 0 34.1608 0 31.6923V17.6593C9.62232e-05 16.2341 0.324737 14.8281 0.948896 13.5494C1.57306 12.2708 2.48006 11.1538 3.6 10.2844L14.3692 1.93228C15.9833 0.679376 17.9631 0 20 0C22.0369 0 24.0167 0.679376 25.6308 1.93228L36.4 10.2844C37.5203 11.1541 38.4276 12.2716 39.0518 13.5508C39.676 14.83 40.0004 16.2367 40 17.6624V31.6923ZM24.6154 25.4871C24.6154 25.0757 24.4533 24.6811 24.1648 24.3902C23.8763 24.0992 23.4849 23.9358 23.0769 23.9358H16.9231C16.5151 23.9358 16.1237 24.0992 15.8352 24.3902C15.5467 24.6811 15.3846 25.0757 15.3846 25.4871V36.3461H24.6154V25.4871Z" fill="#FF0000"/>
</svg>
