<svg width="403" height="39" viewBox="0 0 403 39" fill="none" xmlns="http://www.w3.org/2000/svg">
<path d="M26.3984 5.125C24.4141 5.125 22.2969 5.32031 20.0469 5.71094C17.8125 6.08594 15.9297 6.50781 14.3984 6.97656C12.8672 7.44531 11.4766 7.875 10.2266 8.26562C8.97656 8.64062 8.22656 8.82812 7.97656 8.82812C7.11719 8.82812 6.6875 8.53125 6.6875 7.9375C6.6875 7.32812 7.15625 6.71094 8.09375 6.08594C11.1094 4.07031 14.5234 2.5625 18.3359 1.5625C22.1641 0.5625 25.8203 0.0625 29.3047 0.0625C32.8047 0.0625 35.6641 0.351562 37.8828 0.929688C40.1172 1.50781 41.9609 2.29687 43.4141 3.29688C44.8672 4.29688 46.0625 5.51562 47 6.95312C48.75 9.625 49.625 12.9609 49.625 16.9609C49.625 21.1797 48.4688 25.0625 46.1562 28.6094C43.6094 32.5 40.2422 35.2031 36.0547 36.7188C33.7734 37.5312 31.3281 37.9375 28.7188 37.9375C24.5625 37.9375 21.3125 37.2812 18.9688 35.9688C18.3125 36.6094 17.5156 37.0156 16.5781 37.1875C15.6406 37.375 14.3438 37.4688 12.6875 37.4688C11.0312 37.4688 9.44531 37.3359 7.92969 37.0703C6.42969 36.8047 5.11719 36.4688 3.99219 36.0625C2.86719 35.6406 1.94531 35.1797 1.22656 34.6797C0.507812 34.1641 0.148438 33.7031 0.148438 33.2969C0.148438 32.8906 0.3125 32.5781 0.640625 32.3594C0.953125 32.125 1.3125 32.0078 1.71875 32.0078C3.125 32.0078 4.15625 31.7891 4.8125 31.3516C5.48438 30.8984 6.16406 30.0547 6.85156 28.8203C7.55469 27.5859 8.20312 26.1797 8.79688 24.6016C9.39062 23.0234 9.94531 21.5078 10.4609 20.0547C10.9922 18.6016 11.5938 17.1328 12.2656 15.6484C13.7188 12.3828 15.5391 10.2344 17.7266 9.20312C18.8047 8.70312 20.1797 8.32031 21.8516 8.05469C23.5234 7.77344 25.2031 7.63281 26.8906 7.63281C28.5781 7.63281 29.4219 8.02344 29.4219 8.80469C29.4219 9.39844 29.0625 10.2578 28.3438 11.3828C27.6406 12.5078 26.8828 14.25 26.0703 16.6094C25.2578 18.9688 24.3516 21.7812 23.3516 25.0469C22.3672 28.3125 21.6016 30.7031 21.0547 32.2188L20.6562 33.25C21.1406 33.2969 21.8984 33.3203 22.9297 33.3203C23.9609 33.3203 25.1094 33.1016 26.375 32.6641C27.6562 32.2266 28.7656 31.6328 29.7031 30.8828C30.6406 30.1172 31.4844 29.2188 32.2344 28.1875C33 27.1562 33.625 26.0625 34.1094 24.9062C34.6094 23.7344 35.0234 22.5 35.3516 21.2031C35.9609 18.8125 36.2656 16.25 36.2656 13.5156C36.2656 7.92188 32.9766 5.125 26.3984 5.125ZM89.7031 30.3203C90.25 30.3203 90.5234 30.5781 90.5234 31.0938C90.5234 31.5938 90.1484 32.0625 89.3984 32.5C88.6641 32.9219 87.75 33.3828 86.6562 33.8828C85.5625 34.3672 84.0547 34.9453 82.1328 35.6172C77.7109 37.1641 72.7188 37.9375 67.1562 37.9375C56.5938 37.9375 51.3125 34.6875 51.3125 28.1875C51.3125 25.0156 52.3125 22.2031 54.3125 19.75C56.3281 17.2812 59.0234 15.3984 62.3984 14.1016C65.7734 12.7891 69.4531 12.1328 73.4375 12.1328C77.4219 12.1328 80.3359 12.75 82.1797 13.9844C84.0391 15.2188 84.9688 16.9141 84.9688 19.0703C84.9688 21.2891 84.0781 23.1016 82.2969 24.5078C80.5312 25.9141 78.1797 26.9609 75.2422 27.6484C72.2891 28.3359 68.9062 28.8203 65.0938 29.1016C65.3438 31.5234 67.0781 33.0312 70.2969 33.625C71.125 33.7656 72 33.8359 72.9219 33.8359C76.5781 33.8359 81.8516 32.7344 88.7422 30.5312C89.1641 30.3906 89.4844 30.3203 89.7031 30.3203ZM65.1172 26.5234C67.8359 25.7734 69.9844 24.625 71.5625 23.0781C73.1406 21.5312 73.9297 19.6641 73.9297 17.4766C73.9297 16.8984 73.7422 16.4375 73.3672 16.0938C72.9922 15.75 72.4219 15.5781 71.6562 15.5781C70.9062 15.5781 70.1172 15.9062 69.2891 16.5625C68.4766 17.2188 67.7891 18.0781 67.2266 19.1406C66.0391 21.3438 65.3359 23.8047 65.1172 26.5234ZM93.9688 12.8828L106.367 12.625C106.883 12.625 107.141 12.9688 107.141 13.6562C107.141 14.0312 107 14.4062 106.719 14.7812C105.328 16.5781 104.203 18.6172 103.344 20.8984C102.5 23.1797 102.078 25.4062 102.078 27.5781C102.078 28.7031 102.312 29.6875 102.781 30.5312C103.25 31.375 103.82 31.7969 104.492 31.7969C105.695 31.7969 107.062 30.7969 108.594 28.7969C110.141 26.7969 111.492 24.4531 112.648 21.7656C113.82 19.0781 114.578 16.6719 114.922 14.5469C115.016 13.9688 115.156 13.5625 115.344 13.3281C115.531 13.0938 115.914 12.9766 116.492 12.9766L125.656 12.7188C126.219 12.7188 126.5 12.9375 126.5 13.375V13.7031C126.5 15.6094 125.727 17.9688 124.18 20.7812C124.648 20.8594 125.211 20.8984 125.867 20.8984C128.32 20.8984 130.555 20.3359 132.57 19.2109C133.008 18.9609 133.375 18.8359 133.672 18.8359C134.297 18.8359 134.609 19.125 134.609 19.7031C134.609 20.2656 134.273 20.8047 133.602 21.3203C131.352 23.0391 128.32 23.8984 124.508 23.8984C123.617 23.8984 122.891 23.8516 122.328 23.7578C122.219 23.9453 122.039 24.2109 121.789 24.5547C120.133 26.8672 117.742 29.1406 114.617 31.375C111.508 33.6094 108.391 35.3906 105.266 36.7188C102.141 38.0469 99.5859 38.7109 97.6016 38.7109C96.1484 38.7109 94.6562 38.1719 93.125 37.0938C90.0625 34.9531 88.5312 31.6719 88.5312 27.25C88.5312 25.3594 88.8828 23.1094 89.5859 20.5C90.3047 17.8906 91.1094 15.7969 92 14.2188C92.5 13.3438 93.1562 12.8984 93.9688 12.8828ZM146.164 29.4531C147.648 31.2344 149.977 32.125 153.148 32.125C156.117 32.125 159.195 31.625 162.383 30.625C163.43 30.2969 164.203 30.1328 164.703 30.1328C165.609 30.1328 166.062 30.3906 166.062 30.9062C166.062 31.6562 165.469 32.4609 164.281 33.3203C163.094 34.1641 161.594 34.9219 159.781 35.5938C157.969 36.2656 155.914 36.8203 153.617 37.2578C151.336 37.7109 149.164 37.9375 147.102 37.9375C143.445 37.9375 140.227 37.3672 137.445 36.2266C134.664 35.0859 132.508 33.4609 130.977 31.3516C129.445 29.2266 128.68 26.9141 128.68 24.4141C128.68 21.8984 129.102 19.5781 129.945 17.4531C130.789 15.3125 131.93 13.3828 133.367 11.6641C134.82 9.94531 136.508 8.35156 138.43 6.88281C140.367 5.41406 142.406 4.1875 144.547 3.20312C149.125 1.10938 153.516 0.0625 157.719 0.0625C161.922 0.0625 165.188 0.929688 167.516 2.66406C169.844 4.38281 171.008 6.49219 171.008 8.99219C171.008 11.7109 170.203 14.0938 168.594 16.1406C167.828 17.1406 166.805 17.9375 165.523 18.5312C164.258 19.125 162.828 19.4219 161.234 19.4219C160.172 19.4219 159.266 19.2734 158.516 18.9766C157.094 18.4141 156.383 17.6094 156.383 16.5625C156.383 16.2031 156.789 15.1875 157.602 13.5156C158.43 11.8438 159.258 10.125 160.086 8.35938C160.914 6.57812 161.328 5.35938 161.328 4.70312C161.328 4.03125 161.047 3.57031 160.484 3.32031C159.922 3.07031 159.117 2.94531 158.07 2.94531C157.039 2.94531 155.867 3.34375 154.555 4.14062C153.242 4.92187 151.977 6 150.758 7.375C149.539 8.73438 148.422 10.25 147.406 11.9219C146.391 13.5938 145.578 15.4062 144.969 17.3594C144.359 19.2969 144.055 21.0391 144.055 22.5859C144.055 24.1328 144.227 25.4531 144.57 26.5469C144.93 27.6406 145.461 28.6094 146.164 29.4531ZM175.883 35.4297C172.945 33.6641 171.477 30.9844 171.477 27.3906C171.477 25.5156 171.859 23.7578 172.625 22.1172C173.406 20.4609 174.469 19.0312 175.812 17.8281C177.172 16.625 178.75 15.5938 180.547 14.7344C184.141 13 188.258 12.1328 192.898 12.1328C202.023 12.1328 206.953 15.0234 207.688 20.8047C208.781 21.1641 209.906 21.3438 211.062 21.3438C212.234 21.3438 213.211 21.2578 213.992 21.0859C214.773 20.9141 215.508 20.6562 216.195 20.3125C216.898 19.9688 217.398 19.7969 217.695 19.7969C218.289 19.7969 218.586 20.0859 218.586 20.6641C218.586 21.2422 218.125 21.8438 217.203 22.4688C215.469 23.6562 213.172 24.25 210.312 24.25C209.234 24.25 208.359 24.1953 207.688 24.0859C207.188 28.0234 205.156 31.2969 201.594 33.9062C199.891 35.1562 197.797 36.1406 195.312 36.8594C192.844 37.5781 190.281 37.9375 187.625 37.9375C184.984 37.9375 182.719 37.7266 180.828 37.3047C178.938 36.8984 177.289 36.2734 175.883 35.4297ZM184.391 29.4531C184.391 32.3438 185.445 33.7891 187.555 33.7891C188.898 33.7891 190.148 33.0547 191.305 31.5859C192.477 30.1172 193.383 28.2969 194.023 26.125C194.68 23.9531 195.008 21.7422 195.008 19.4922C195.008 17.2266 194.219 16.0938 192.641 16.0938C191.266 16.0938 189.93 16.7422 188.633 18.0391C187.352 19.3359 186.32 21.0234 185.539 23.1016C184.773 25.1641 184.391 27.2812 184.391 29.4531ZM257.773 30.3203C258.352 30.3203 258.641 30.5938 258.641 31.1406C258.641 31.6719 258.352 32.1406 257.773 32.5469C257.211 32.9531 256.375 33.4219 255.266 33.9531C254.156 34.4688 252.773 35.0391 251.117 35.6641C249.477 36.2891 247.57 36.8203 245.398 37.2578C243.242 37.7109 241.18 37.9375 239.211 37.9375C234.57 37.9375 232.25 36.875 232.25 34.75C232.25 33.375 233.031 30.9219 234.594 27.3906C236.172 23.8438 236.961 21.4531 236.961 20.2188C236.961 18.8281 235.875 18.1328 233.703 18.1328C232.719 18.1328 231.602 18.2578 230.352 18.5078C229.758 20.6016 228.695 23.9297 227.164 28.4922C225.648 33.0547 224.789 35.6484 224.586 36.2734C224.398 36.8984 223.984 37.2109 223.344 37.2109L211.273 37.4688C211.102 37.4688 210.906 37.3594 210.688 37.1406C210.484 36.9375 210.383 36.6953 210.383 36.4141C210.383 36.1172 210.711 35.0938 211.367 33.3438C212.039 31.5781 212.773 29.6875 213.57 27.6719C214.383 25.6406 215.117 23.4141 215.773 20.9922C216.445 18.5547 216.781 16.5391 216.781 14.9453L216.758 14.0547C216.758 13.2734 217.516 12.8828 219.031 12.8828L230.141 12.625C230.547 12.625 230.852 12.75 231.055 13C231.258 13.2344 231.359 13.5312 231.359 13.8906C231.359 14.2344 231.273 14.7969 231.102 15.5781C236.602 13.2812 241.117 12.1328 244.648 12.1328C246.148 12.1328 247.516 12.5469 248.75 13.375C250.125 14.2969 250.812 15.6953 250.812 17.5703C250.812 19.4922 250.086 22.0078 248.633 25.1172C247.18 28.2266 246.453 30.1484 246.453 30.8828C246.453 32.3359 247.031 33.0625 248.188 33.0625C248.922 33.0625 250.172 32.7891 251.938 32.2422C253.719 31.6797 255.031 31.2188 255.875 30.8594C256.734 30.5 257.367 30.3203 257.773 30.3203ZM301.836 30.3203C302.414 30.3203 302.703 30.5938 302.703 31.1406C302.703 31.6719 302.414 32.1406 301.836 32.5469C301.273 32.9531 300.438 33.4219 299.328 33.9531C298.219 34.4688 296.836 35.0391 295.18 35.6641C293.539 36.2891 291.633 36.8203 289.461 37.2578C287.305 37.7109 285.242 37.9375 283.273 37.9375C278.633 37.9375 276.312 36.875 276.312 34.75C276.312 33.375 277.094 30.9219 278.656 27.3906C280.234 23.8438 281.023 21.4531 281.023 20.2188C281.023 18.8281 279.938 18.1328 277.766 18.1328C276.781 18.1328 275.664 18.2578 274.414 18.5078C273.82 20.6016 272.758 23.9297 271.227 28.4922C269.711 33.0547 268.852 35.6484 268.648 36.2734C268.461 36.8984 268.047 37.2109 267.406 37.2109L255.336 37.4688C255.164 37.4688 254.969 37.3594 254.75 37.1406C254.547 36.9375 254.445 36.6953 254.445 36.4141C254.445 36.1172 254.773 35.0938 255.43 33.3438C256.102 31.5781 256.836 29.6875 257.633 27.6719C258.445 25.6406 259.18 23.4141 259.836 20.9922C260.508 18.5547 260.844 16.5391 260.844 14.9453L260.82 14.0547C260.82 13.2734 261.578 12.8828 263.094 12.8828L274.203 12.625C274.609 12.625 274.914 12.75 275.117 13C275.32 13.2344 275.422 13.5312 275.422 13.8906C275.422 14.2344 275.336 14.7969 275.164 15.5781C280.664 13.2812 285.18 12.1328 288.711 12.1328C290.211 12.1328 291.578 12.5469 292.812 13.375C294.188 14.2969 294.875 15.6953 294.875 17.5703C294.875 19.4922 294.148 22.0078 292.695 25.1172C291.242 28.2266 290.516 30.1484 290.516 30.8828C290.516 32.3359 291.094 33.0625 292.25 33.0625C292.984 33.0625 294.234 32.7891 296 32.2422C297.781 31.6797 299.094 31.2188 299.938 30.8594C300.797 30.5 301.43 30.3203 301.836 30.3203ZM337.906 30.3203C338.453 30.3203 338.727 30.5781 338.727 31.0938C338.727 31.5938 338.352 32.0625 337.602 32.5C336.867 32.9219 335.953 33.3828 334.859 33.8828C333.766 34.3672 332.258 34.9453 330.336 35.6172C325.914 37.1641 320.922 37.9375 315.359 37.9375C304.797 37.9375 299.516 34.6875 299.516 28.1875C299.516 25.0156 300.516 22.2031 302.516 19.75C304.531 17.2812 307.227 15.3984 310.602 14.1016C313.977 12.7891 317.656 12.1328 321.641 12.1328C325.625 12.1328 328.539 12.75 330.383 13.9844C332.242 15.2188 333.172 16.9141 333.172 19.0703C333.172 21.2891 332.281 23.1016 330.5 24.5078C328.734 25.9141 326.383 26.9609 323.445 27.6484C320.492 28.3359 317.109 28.8203 313.297 29.1016C313.547 31.5234 315.281 33.0312 318.5 33.625C319.328 33.7656 320.203 33.8359 321.125 33.8359C324.781 33.8359 330.055 32.7344 336.945 30.5312C337.367 30.3906 337.688 30.3203 337.906 30.3203ZM313.32 26.5234C316.039 25.7734 318.188 24.625 319.766 23.0781C321.344 21.5312 322.133 19.6641 322.133 17.4766C322.133 16.8984 321.945 16.4375 321.57 16.0938C321.195 15.75 320.625 15.5781 319.859 15.5781C319.109 15.5781 318.32 15.9062 317.492 16.5625C316.68 17.2188 315.992 18.0781 315.43 19.1406C314.242 21.3438 313.539 23.8047 313.32 26.5234ZM350.422 21.6953C349.703 23.6172 349.344 25.3828 349.344 26.9922C349.344 28.6016 349.508 29.8047 349.836 30.6016C350.164 31.3828 350.656 31.9844 351.312 32.4062C353.547 33.8125 357.969 33.8906 364.578 32.6406C367.719 32.0469 370 31.5156 371.422 31.0469C372.859 30.5625 373.703 30.3203 373.953 30.3203C374.5 30.3203 374.773 30.5859 374.773 31.1172C374.773 31.6484 374.359 32.1875 373.531 32.7344C371.344 34.1562 368.258 35.3828 364.273 36.4141C360.289 37.4297 355.836 37.9375 350.914 37.9375C346.008 37.9375 342.281 37.0625 339.734 35.3125C337.188 33.5625 335.914 31.1406 335.914 28.0469C335.914 26.125 336.312 24.3125 337.109 22.6094C337.922 20.9062 339.023 19.4297 340.414 18.1797C341.82 16.9141 343.453 15.8203 345.312 14.8984C349.031 13.0547 353.25 12.1328 357.969 12.1328C363.469 12.1328 367.328 12.7656 369.547 14.0312C369.797 14.2344 369.922 14.6172 369.922 15.1797C369.922 15.7266 369.68 16.6406 369.195 17.9219C368.711 19.2031 368.07 20.3906 367.273 21.4844C366.492 22.5781 365.773 23.125 365.117 23.125C364.461 23.125 363.938 22.7734 363.547 22.0703C363.156 21.3672 362.828 20.7969 362.562 20.3594C362.297 19.9062 361.93 19.375 361.461 18.7656C360.992 18.1562 360.547 17.6953 360.125 17.3828C359.719 17.0703 359.219 16.7969 358.625 16.5625C358.031 16.3281 357.305 16.2109 356.445 16.2109C355.602 16.2109 354.75 16.4688 353.891 16.9844C353.047 17.4844 352.352 18.1406 351.805 18.9531C351.258 19.75 350.797 20.6641 350.422 21.6953ZM393.547 13.1406L399.711 12.3438C400.867 12.3438 401.445 12.7969 401.445 13.7031C401.445 14.6094 400.898 15.1797 399.805 15.4141C398.711 15.6328 396.242 15.9297 392.398 16.3047C391.867 17.6953 391.07 19.625 390.008 22.0938C387.836 27.1562 386.75 30.1953 386.75 31.2109C386.75 32.3203 387.438 32.875 388.812 32.875C393.25 32.875 397.234 32.1328 400.766 30.6484C401.281 30.4297 401.688 30.3203 401.984 30.3203C402.562 30.3203 402.852 30.5781 402.852 31.0938C402.852 31.6094 402.477 32.1172 401.727 32.6172C399.43 34.1328 395.969 35.3984 391.344 36.4141C386.719 37.4297 382.453 37.9375 378.547 37.9375C376.328 37.9375 374.633 37.5938 373.461 36.9062C372.289 36.2031 371.703 35.2422 371.703 34.0234C371.703 32.7891 372.516 30.4844 374.141 27.1094C375.969 23.3281 377.281 20.0078 378.078 17.1484C377.109 17.1953 376.438 17.2188 376.062 17.2188C375.141 17.2188 374.68 16.8438 374.68 16.0938C374.68 15.5469 374.828 15.1797 375.125 14.9922C375.422 14.8047 375.727 14.6719 376.039 14.5938C376.367 14.5156 376.641 14.4688 376.859 14.4531C377.094 14.4219 377.414 14.3906 377.82 14.3594C378.227 14.3281 378.523 14.3047 378.711 14.2891C378.914 13.1016 379.016 11.9844 379.016 10.9375L378.992 10.0469C378.992 9.34375 379.883 8.86719 381.664 8.61719C382.258 8.53906 384.125 8.14844 387.266 7.44531C390.406 6.74219 392.328 6.39062 393.031 6.39062C394.156 6.39062 394.719 6.78125 394.719 7.5625C394.719 8.90625 394.328 10.7656 393.547 13.1406Z" fill="black"/>
</svg>
