<svg width="270" height="27" viewBox="0 0 270 27" fill="none" xmlns="http://www.w3.org/2000/svg">
<path d="M18.2656 3.75C16.9427 3.75 15.5312 3.88021 14.0312 4.14062C12.5417 4.39062 11.2865 4.67188 10.2656 4.98438C9.24479 5.29688 8.31771 5.58333 7.48438 5.84375C6.65104 6.09375 6.15104 6.21875 5.98438 6.21875C5.41146 6.21875 5.125 6.02083 5.125 5.625C5.125 5.21875 5.4375 4.80729 6.0625 4.39062C8.07292 3.04688 10.349 2.04167 12.8906 1.375C15.4427 0.708333 17.8802 0.375 20.2031 0.375C22.5365 0.375 24.4427 0.567708 25.9219 0.953125C27.4115 1.33854 28.6406 1.86458 29.6094 2.53125C30.5781 3.19792 31.375 4.01042 32 4.96875C33.1667 6.75 33.75 8.97396 33.75 11.6406C33.75 14.4531 32.9792 17.0417 31.4375 19.4062C29.7396 22 27.4948 23.8021 24.7031 24.8125C23.1823 25.3542 21.5521 25.625 19.8125 25.625C17.0417 25.625 14.875 25.1875 13.3125 24.3125C12.875 24.7396 12.3438 25.0104 11.7188 25.125C11.0938 25.25 10.2292 25.3125 9.125 25.3125C8.02083 25.3125 6.96354 25.224 5.95312 25.0469C4.95312 24.8698 4.07812 24.6458 3.32812 24.375C2.57812 24.0938 1.96354 23.7865 1.48438 23.4531C1.00521 23.1094 0.765625 22.8021 0.765625 22.5312C0.765625 22.2604 0.875 22.0521 1.09375 21.9062C1.30208 21.75 1.54167 21.6719 1.8125 21.6719C2.75 21.6719 3.4375 21.526 3.875 21.2344C4.32292 20.9323 4.77604 20.3698 5.23438 19.5469C5.70312 18.724 6.13542 17.7865 6.53125 16.7344C6.92708 15.6823 7.29688 14.6719 7.64062 13.7031C7.99479 12.7344 8.39583 11.7552 8.84375 10.7656C9.8125 8.58854 11.026 7.15625 12.4844 6.46875C13.2031 6.13542 14.1198 5.88021 15.2344 5.70312C16.349 5.51562 17.4688 5.42188 18.5938 5.42188C19.7188 5.42188 20.2812 5.68229 20.2812 6.20312C20.2812 6.59896 20.0417 7.17188 19.5625 7.92188C19.0938 8.67188 18.5885 9.83333 18.0469 11.4062C17.5052 12.9792 16.901 14.8542 16.2344 17.0312C15.5781 19.2083 15.0677 20.8021 14.7031 21.8125L14.4375 22.5C14.7604 22.5312 15.2656 22.5469 15.9531 22.5469C16.6406 22.5469 17.4062 22.401 18.25 22.1094C19.1042 21.8177 19.8438 21.4219 20.4688 20.9219C21.0938 20.4115 21.6562 19.8125 22.1562 19.125C22.6667 18.4375 23.0833 17.7083 23.4062 16.9375C23.7396 16.1562 24.0156 15.3333 24.2344 14.4688C24.6406 12.875 24.8438 11.1667 24.8438 9.34375C24.8438 5.61458 22.651 3.75 18.2656 3.75ZM60.4688 20.5469C60.8333 20.5469 61.0156 20.7188 61.0156 21.0625C61.0156 21.3958 60.7656 21.7083 60.2656 22C59.776 22.2812 59.1667 22.5885 58.4375 22.9219C57.7083 23.2448 56.7031 23.6302 55.4219 24.0781C52.474 25.1094 49.1458 25.625 45.4375 25.625C38.3958 25.625 34.875 23.4583 34.875 19.125C34.875 17.0104 35.5417 15.1354 36.875 13.5C38.2188 11.8542 40.0156 10.599 42.2656 9.73438C44.5156 8.85938 46.9688 8.42188 49.625 8.42188C52.2812 8.42188 54.224 8.83333 55.4531 9.65625C56.6927 10.4792 57.3125 11.6094 57.3125 13.0469C57.3125 14.526 56.7188 15.7344 55.5312 16.6719C54.3542 17.6094 52.7865 18.3073 50.8281 18.7656C48.8594 19.224 46.6042 19.5469 44.0625 19.7344C44.2292 21.349 45.3854 22.3542 47.5312 22.75C48.0833 22.8438 48.6667 22.8906 49.2812 22.8906C51.7188 22.8906 55.2344 22.1562 59.8281 20.6875C60.1094 20.5938 60.3229 20.5469 60.4688 20.5469ZM44.0781 18.0156C45.8906 17.5156 47.3229 16.75 48.375 15.7188C49.4271 14.6875 49.9531 13.4427 49.9531 11.9844C49.9531 11.599 49.8281 11.2917 49.5781 11.0625C49.3281 10.8333 48.9479 10.7188 48.4375 10.7188C47.9375 10.7188 47.4115 10.9375 46.8594 11.375C46.3177 11.8125 45.8594 12.3854 45.4844 13.0938C44.6927 14.5625 44.224 16.2031 44.0781 18.0156ZM63.3125 8.92188L71.5781 8.75C71.9219 8.75 72.0938 8.97917 72.0938 9.4375C72.0938 9.6875 72 9.9375 71.8125 10.1875C70.8854 11.3854 70.1354 12.7448 69.5625 14.2656C69 15.7865 68.7188 17.2708 68.7188 18.7188C68.7188 19.4688 68.875 20.125 69.1875 20.6875C69.5 21.25 69.8802 21.5312 70.3281 21.5312C71.1302 21.5312 72.0417 20.8646 73.0625 19.5312C74.0938 18.1979 74.9948 16.6354 75.7656 14.8438C76.5469 13.0521 77.0521 11.4479 77.2812 10.0312C77.3438 9.64583 77.4375 9.375 77.5625 9.21875C77.6875 9.0625 77.9427 8.98438 78.3281 8.98438L84.4375 8.8125C84.8125 8.8125 85 8.95833 85 9.25V9.46875C85 10.7396 84.4844 12.3125 83.4531 14.1875C83.7656 14.2396 84.1406 14.2656 84.5781 14.2656C86.2135 14.2656 87.7031 13.8906 89.0469 13.1406C89.3385 12.974 89.5833 12.8906 89.7812 12.8906C90.1979 12.8906 90.4062 13.0833 90.4062 13.4688C90.4062 13.8438 90.1823 14.2031 89.7344 14.5469C88.2344 15.6927 86.2135 16.2656 83.6719 16.2656C83.0781 16.2656 82.5938 16.2344 82.2188 16.1719C82.1458 16.2969 82.026 16.474 81.8594 16.7031C80.7552 18.2448 79.1615 19.7604 77.0781 21.25C75.0052 22.7396 72.9271 23.9271 70.8438 24.8125C68.7604 25.6979 67.0573 26.1406 65.7344 26.1406C64.7656 26.1406 63.7708 25.7812 62.75 25.0625C60.7083 23.6354 59.6875 21.4479 59.6875 18.5C59.6875 17.2396 59.9219 15.7396 60.3906 14C60.8698 12.2604 61.4062 10.8646 62 9.8125C62.3333 9.22917 62.7708 8.93229 63.3125 8.92188ZM98.1094 19.9688C99.099 21.1562 100.651 21.75 102.766 21.75C104.745 21.75 106.797 21.4167 108.922 20.75C109.62 20.5312 110.135 20.4219 110.469 20.4219C111.073 20.4219 111.375 20.5938 111.375 20.9375C111.375 21.4375 110.979 21.974 110.188 22.5469C109.396 23.1094 108.396 23.6146 107.188 24.0625C105.979 24.5104 104.609 24.8802 103.078 25.1719C101.557 25.474 100.109 25.625 98.7344 25.625C96.2969 25.625 94.151 25.2448 92.2969 24.4844C90.4427 23.724 89.0052 22.6406 87.9844 21.2344C86.9635 19.8177 86.4531 18.276 86.4531 16.6094C86.4531 14.9323 86.7344 13.3854 87.2969 11.9688C87.8594 10.5417 88.6198 9.25521 89.5781 8.10938C90.5469 6.96354 91.6719 5.90104 92.9531 4.92188C94.2448 3.94271 95.6042 3.125 97.0312 2.46875C100.083 1.07292 103.01 0.375 105.812 0.375C108.615 0.375 110.792 0.953125 112.344 2.10938C113.896 3.25521 114.672 4.66146 114.672 6.32812C114.672 8.14062 114.135 9.72917 113.062 11.0938C112.552 11.7604 111.87 12.2917 111.016 12.6875C110.172 13.0833 109.219 13.2812 108.156 13.2812C107.448 13.2812 106.844 13.1823 106.344 12.9844C105.396 12.6094 104.922 12.0729 104.922 11.375C104.922 11.1354 105.193 10.4583 105.734 9.34375C106.286 8.22917 106.839 7.08333 107.391 5.90625C107.943 4.71875 108.219 3.90625 108.219 3.46875C108.219 3.02083 108.031 2.71354 107.656 2.54688C107.281 2.38021 106.745 2.29688 106.047 2.29688C105.359 2.29688 104.578 2.5625 103.703 3.09375C102.828 3.61458 101.984 4.33333 101.172 5.25C100.359 6.15625 99.6146 7.16667 98.9375 8.28125C98.2604 9.39583 97.7188 10.6042 97.3125 11.9062C96.9062 13.1979 96.7031 14.3594 96.7031 15.3906C96.7031 16.4219 96.8177 17.3021 97.0469 18.0312C97.2865 18.7604 97.6406 19.4062 98.1094 19.9688ZM117.922 23.9531C115.964 22.776 114.984 20.9896 114.984 18.5938C114.984 17.3438 115.24 16.1719 115.75 15.0781C116.271 13.974 116.979 13.0208 117.875 12.2188C118.781 11.4167 119.833 10.7292 121.031 10.1562C123.427 9 126.172 8.42188 129.266 8.42188C135.349 8.42188 138.635 10.349 139.125 14.2031C139.854 14.4427 140.604 14.5625 141.375 14.5625C142.156 14.5625 142.807 14.5052 143.328 14.3906C143.849 14.276 144.339 14.1042 144.797 13.875C145.266 13.6458 145.599 13.5312 145.797 13.5312C146.193 13.5312 146.391 13.724 146.391 14.1094C146.391 14.4948 146.083 14.8958 145.469 15.3125C144.312 16.1042 142.781 16.5 140.875 16.5C140.156 16.5 139.573 16.4635 139.125 16.3906C138.792 19.0156 137.438 21.1979 135.062 22.9375C133.927 23.7708 132.531 24.4271 130.875 24.9062C129.229 25.3854 127.521 25.625 125.75 25.625C123.99 25.625 122.479 25.4844 121.219 25.2031C119.958 24.9323 118.859 24.5156 117.922 23.9531ZM123.594 19.9688C123.594 21.8958 124.297 22.8594 125.703 22.8594C126.599 22.8594 127.432 22.3698 128.203 21.3906C128.984 20.4115 129.589 19.1979 130.016 17.75C130.453 16.3021 130.672 14.8281 130.672 13.3281C130.672 11.8177 130.146 11.0625 129.094 11.0625C128.177 11.0625 127.286 11.4948 126.422 12.3594C125.568 13.224 124.88 14.349 124.359 15.7344C123.849 17.1094 123.594 18.5208 123.594 19.9688ZM172.516 20.5469C172.901 20.5469 173.094 20.7292 173.094 21.0938C173.094 21.4479 172.901 21.7604 172.516 22.0312C172.141 22.3021 171.583 22.6146 170.844 22.9688C170.104 23.3125 169.182 23.6927 168.078 24.1094C166.984 24.526 165.714 24.8802 164.266 25.1719C162.828 25.474 161.453 25.625 160.141 25.625C157.047 25.625 155.5 24.9167 155.5 23.5C155.5 22.5833 156.021 20.9479 157.062 18.5938C158.115 16.2292 158.641 14.6354 158.641 13.8125C158.641 12.8854 157.917 12.4219 156.469 12.4219C155.812 12.4219 155.068 12.5052 154.234 12.6719C153.839 14.0677 153.13 16.2865 152.109 19.3281C151.099 22.3698 150.526 24.099 150.391 24.5156C150.266 24.9323 149.99 25.1406 149.562 25.1406L141.516 25.3125C141.401 25.3125 141.271 25.2396 141.125 25.0938C140.99 24.9583 140.922 24.7969 140.922 24.6094C140.922 24.4115 141.141 23.7292 141.578 22.5625C142.026 21.3854 142.516 20.125 143.047 18.7812C143.589 17.4271 144.078 15.9427 144.516 14.3281C144.964 12.7031 145.188 11.3594 145.188 10.2969L145.172 9.70312C145.172 9.18229 145.677 8.92188 146.688 8.92188L154.094 8.75C154.365 8.75 154.568 8.83333 154.703 9C154.839 9.15625 154.906 9.35417 154.906 9.59375C154.906 9.82292 154.849 10.1979 154.734 10.7188C158.401 9.1875 161.411 8.42188 163.766 8.42188C164.766 8.42188 165.677 8.69792 166.5 9.25C167.417 9.86458 167.875 10.7969 167.875 12.0469C167.875 13.3281 167.391 15.0052 166.422 17.0781C165.453 19.151 164.969 20.4323 164.969 20.9219C164.969 21.8906 165.354 22.375 166.125 22.375C166.615 22.375 167.448 22.1927 168.625 21.8281C169.812 21.4531 170.688 21.1458 171.25 20.9062C171.823 20.6667 172.245 20.5469 172.516 20.5469ZM201.891 20.5469C202.276 20.5469 202.469 20.7292 202.469 21.0938C202.469 21.4479 202.276 21.7604 201.891 22.0312C201.516 22.3021 200.958 22.6146 200.219 22.9688C199.479 23.3125 198.557 23.6927 197.453 24.1094C196.359 24.526 195.089 24.8802 193.641 25.1719C192.203 25.474 190.828 25.625 189.516 25.625C186.422 25.625 184.875 24.9167 184.875 23.5C184.875 22.5833 185.396 20.9479 186.438 18.5938C187.49 16.2292 188.016 14.6354 188.016 13.8125C188.016 12.8854 187.292 12.4219 185.844 12.4219C185.188 12.4219 184.443 12.5052 183.609 12.6719C183.214 14.0677 182.505 16.2865 181.484 19.3281C180.474 22.3698 179.901 24.099 179.766 24.5156C179.641 24.9323 179.365 25.1406 178.938 25.1406L170.891 25.3125C170.776 25.3125 170.646 25.2396 170.5 25.0938C170.365 24.9583 170.297 24.7969 170.297 24.6094C170.297 24.4115 170.516 23.7292 170.953 22.5625C171.401 21.3854 171.891 20.125 172.422 18.7812C172.964 17.4271 173.453 15.9427 173.891 14.3281C174.339 12.7031 174.562 11.3594 174.562 10.2969L174.547 9.70312C174.547 9.18229 175.052 8.92188 176.062 8.92188L183.469 8.75C183.74 8.75 183.943 8.83333 184.078 9C184.214 9.15625 184.281 9.35417 184.281 9.59375C184.281 9.82292 184.224 10.1979 184.109 10.7188C187.776 9.1875 190.786 8.42188 193.141 8.42188C194.141 8.42188 195.052 8.69792 195.875 9.25C196.792 9.86458 197.25 10.7969 197.25 12.0469C197.25 13.3281 196.766 15.0052 195.797 17.0781C194.828 19.151 194.344 20.4323 194.344 20.9219C194.344 21.8906 194.729 22.375 195.5 22.375C195.99 22.375 196.823 22.1927 198 21.8281C199.188 21.4531 200.062 21.1458 200.625 20.9062C201.198 20.6667 201.62 20.5469 201.891 20.5469ZM225.938 20.5469C226.302 20.5469 226.484 20.7188 226.484 21.0625C226.484 21.3958 226.234 21.7083 225.734 22C225.245 22.2812 224.635 22.5885 223.906 22.9219C223.177 23.2448 222.172 23.6302 220.891 24.0781C217.943 25.1094 214.615 25.625 210.906 25.625C203.865 25.625 200.344 23.4583 200.344 19.125C200.344 17.0104 201.01 15.1354 202.344 13.5C203.688 11.8542 205.484 10.599 207.734 9.73438C209.984 8.85938 212.438 8.42188 215.094 8.42188C217.75 8.42188 219.693 8.83333 220.922 9.65625C222.161 10.4792 222.781 11.6094 222.781 13.0469C222.781 14.526 222.188 15.7344 221 16.6719C219.823 17.6094 218.255 18.3073 216.297 18.7656C214.328 19.224 212.073 19.5469 209.531 19.7344C209.698 21.349 210.854 22.3542 213 22.75C213.552 22.8438 214.135 22.8906 214.75 22.8906C217.188 22.8906 220.703 22.1562 225.297 20.6875C225.578 20.5938 225.792 20.5469 225.938 20.5469ZM209.547 18.0156C211.359 17.5156 212.792 16.75 213.844 15.7188C214.896 14.6875 215.422 13.4427 215.422 11.9844C215.422 11.599 215.297 11.2917 215.047 11.0625C214.797 10.8333 214.417 10.7188 213.906 10.7188C213.406 10.7188 212.88 10.9375 212.328 11.375C211.786 11.8125 211.328 12.3854 210.953 13.0938C210.161 14.5625 209.693 16.2031 209.547 18.0156ZM234.281 14.7969C233.802 16.0781 233.562 17.2552 233.562 18.3281C233.562 19.401 233.672 20.2031 233.891 20.7344C234.109 21.2552 234.438 21.6562 234.875 21.9375C236.365 22.875 239.312 22.9271 243.719 22.0938C245.812 21.6979 247.333 21.3438 248.281 21.0312C249.24 20.7083 249.802 20.5469 249.969 20.5469C250.333 20.5469 250.516 20.724 250.516 21.0781C250.516 21.4323 250.24 21.7917 249.688 22.1562C248.229 23.1042 246.172 23.9219 243.516 24.6094C240.859 25.2865 237.891 25.625 234.609 25.625C231.339 25.625 228.854 25.0417 227.156 23.875C225.458 22.7083 224.609 21.0938 224.609 19.0312C224.609 17.75 224.875 16.5417 225.406 15.4062C225.948 14.2708 226.682 13.2865 227.609 12.4531C228.547 11.6094 229.635 10.8802 230.875 10.2656C233.354 9.03646 236.167 8.42188 239.312 8.42188C242.979 8.42188 245.552 8.84375 247.031 9.6875C247.198 9.82292 247.281 10.0781 247.281 10.4531C247.281 10.8177 247.12 11.4271 246.797 12.2812C246.474 13.1354 246.047 13.9271 245.516 14.6562C244.995 15.3854 244.516 15.75 244.078 15.75C243.641 15.75 243.292 15.5156 243.031 15.0469C242.771 14.5781 242.552 14.1979 242.375 13.9062C242.198 13.6042 241.953 13.25 241.641 12.8438C241.328 12.4375 241.031 12.1302 240.75 11.9219C240.479 11.7135 240.146 11.5312 239.75 11.375C239.354 11.2188 238.87 11.1406 238.297 11.1406C237.734 11.1406 237.167 11.3125 236.594 11.6562C236.031 11.9896 235.568 12.4271 235.203 12.9688C234.839 13.5 234.531 14.1094 234.281 14.7969ZM263.031 9.09375L267.141 8.5625C267.911 8.5625 268.297 8.86458 268.297 9.46875C268.297 10.0729 267.932 10.4531 267.203 10.6094C266.474 10.7552 264.828 10.9531 262.266 11.2031C261.911 12.1302 261.38 13.4167 260.672 15.0625C259.224 18.4375 258.5 20.4635 258.5 21.1406C258.5 21.8802 258.958 22.25 259.875 22.25C262.833 22.25 265.49 21.7552 267.844 20.7656C268.188 20.6198 268.458 20.5469 268.656 20.5469C269.042 20.5469 269.234 20.7188 269.234 21.0625C269.234 21.4062 268.984 21.7448 268.484 22.0781C266.953 23.0885 264.646 23.9323 261.562 24.6094C258.479 25.2865 255.635 25.625 253.031 25.625C251.552 25.625 250.422 25.3958 249.641 24.9375C248.859 24.4688 248.469 23.8281 248.469 23.0156C248.469 22.1927 249.01 20.6562 250.094 18.4062C251.312 15.8854 252.188 13.6719 252.719 11.7656C252.073 11.7969 251.625 11.8125 251.375 11.8125C250.76 11.8125 250.453 11.5625 250.453 11.0625C250.453 10.6979 250.552 10.4531 250.75 10.3281C250.948 10.2031 251.151 10.1146 251.359 10.0625C251.578 10.0104 251.76 9.97917 251.906 9.96875C252.062 9.94792 252.276 9.92708 252.547 9.90625C252.818 9.88542 253.016 9.86979 253.141 9.85938C253.276 9.06771 253.344 8.32292 253.344 7.625L253.328 7.03125C253.328 6.5625 253.922 6.24479 255.109 6.07812C255.505 6.02604 256.75 5.76562 258.844 5.29688C260.938 4.82812 262.219 4.59375 262.688 4.59375C263.438 4.59375 263.812 4.85417 263.812 5.375C263.812 6.27083 263.552 7.51042 263.031 9.09375Z" fill="black"/>
</svg>
