<svg width="66" height="11" viewBox="0 0 66 11" fill="none" xmlns="http://www.w3.org/2000/svg">
<path d="M7.09961 2.03125C6.60352 2.03125 6.07422 2.08008 5.51172 2.17773C4.95312 2.27148 4.48242 2.37695 4.09961 2.49414C3.7168 2.61133 3.36914 2.71875 3.05664 2.81641C2.74414 2.91016 2.55664 2.95703 2.49414 2.95703C2.2793 2.95703 2.17188 2.88281 2.17188 2.73438C2.17188 2.58203 2.28906 2.42773 2.52344 2.27148C3.27734 1.76758 4.13086 1.39063 5.08398 1.14062C6.04102 0.890625 6.95508 0.765625 7.82617 0.765625C8.70117 0.765625 9.41602 0.837891 9.9707 0.982422C10.5293 1.12695 10.9902 1.32422 11.3535 1.57422C11.7168 1.82422 12.0156 2.12891 12.25 2.48828C12.6875 3.15625 12.9062 3.99023 12.9062 4.99023C12.9062 6.04492 12.6172 7.01562 12.0391 7.90234C11.4023 8.875 10.5605 9.55078 9.51367 9.92969C8.94336 10.1328 8.33203 10.2344 7.67969 10.2344C6.64062 10.2344 5.82812 10.0703 5.24219 9.74219C5.07812 9.90234 4.87891 10.0039 4.64453 10.0469C4.41016 10.0938 4.08594 10.1172 3.67188 10.1172C3.25781 10.1172 2.86133 10.084 2.48242 10.0176C2.10742 9.95117 1.7793 9.86719 1.49805 9.76562C1.2168 9.66016 0.986328 9.54492 0.806641 9.41992C0.626953 9.29102 0.537109 9.17578 0.537109 9.07422C0.537109 8.97266 0.578125 8.89453 0.660156 8.83984C0.738281 8.78125 0.828125 8.75195 0.929688 8.75195C1.28125 8.75195 1.53906 8.69727 1.70312 8.58789C1.87109 8.47461 2.04102 8.26367 2.21289 7.95508C2.38867 7.64648 2.55078 7.29492 2.69922 6.90039C2.84766 6.50586 2.98633 6.12695 3.11523 5.76367C3.24805 5.40039 3.39844 5.0332 3.56641 4.66211C3.92969 3.8457 4.38477 3.30859 4.93164 3.05078C5.20117 2.92578 5.54492 2.83008 5.96289 2.76367C6.38086 2.69336 6.80078 2.6582 7.22266 2.6582C7.64453 2.6582 7.85547 2.75586 7.85547 2.95117C7.85547 3.09961 7.76562 3.31445 7.58594 3.5957C7.41016 3.87695 7.2207 4.3125 7.01758 4.90234C6.81445 5.49219 6.58789 6.19531 6.33789 7.01172C6.0918 7.82812 5.90039 8.42578 5.76367 8.80469L5.66406 9.0625C5.78516 9.07422 5.97461 9.08008 6.23242 9.08008C6.49023 9.08008 6.77734 9.02539 7.09375 8.91602C7.41406 8.80664 7.69141 8.6582 7.92578 8.4707C8.16016 8.2793 8.37109 8.05469 8.55859 7.79688C8.75 7.53906 8.90625 7.26562 9.02734 6.97656C9.15234 6.68359 9.25586 6.375 9.33789 6.05078C9.49023 5.45312 9.56641 4.8125 9.56641 4.12891C9.56641 2.73047 8.74414 2.03125 7.09961 2.03125ZM22.9258 8.33008C23.0625 8.33008 23.1309 8.39453 23.1309 8.52344C23.1309 8.64844 23.0371 8.76562 22.8496 8.875C22.666 8.98047 22.4375 9.0957 22.1641 9.2207C21.8906 9.3418 21.5137 9.48633 21.0332 9.6543C19.9277 10.041 18.6797 10.2344 17.2891 10.2344C14.6484 10.2344 13.3281 9.42188 13.3281 7.79688C13.3281 7.00391 13.5781 6.30078 14.0781 5.6875C14.582 5.07031 15.2559 4.59961 16.0996 4.27539C16.9434 3.94727 17.8633 3.7832 18.8594 3.7832C19.8555 3.7832 20.584 3.9375 21.0449 4.24609C21.5098 4.55469 21.7422 4.97852 21.7422 5.51758C21.7422 6.07227 21.5195 6.52539 21.0742 6.87695C20.6328 7.22852 20.0449 7.49023 19.3105 7.66211C18.5723 7.83398 17.7266 7.95508 16.7734 8.02539C16.8359 8.63086 17.2695 9.00781 18.0742 9.15625C18.2812 9.19141 18.5 9.20898 18.7305 9.20898C19.6445 9.20898 20.9629 8.93359 22.6855 8.38281C22.791 8.34766 22.8711 8.33008 22.9258 8.33008ZM16.7793 7.38086C17.459 7.19336 17.9961 6.90625 18.3906 6.51953C18.7852 6.13281 18.9824 5.66602 18.9824 5.11914C18.9824 4.97461 18.9355 4.85938 18.8418 4.77344C18.748 4.6875 18.6055 4.64453 18.4141 4.64453C18.2266 4.64453 18.0293 4.72656 17.8223 4.89062C17.6191 5.05469 17.4473 5.26953 17.3066 5.53516C17.0098 6.08594 16.834 6.70117 16.7793 7.38086ZM23.9922 3.9707L27.0918 3.90625C27.2207 3.90625 27.2852 3.99219 27.2852 4.16406C27.2852 4.25781 27.25 4.35156 27.1797 4.44531C26.832 4.89453 26.5508 5.4043 26.3359 5.97461C26.125 6.54492 26.0195 7.10156 26.0195 7.64453C26.0195 7.92578 26.0781 8.17188 26.1953 8.38281C26.3125 8.59375 26.4551 8.69922 26.623 8.69922C26.9238 8.69922 27.2656 8.44922 27.6484 7.94922C28.0352 7.44922 28.373 6.86328 28.6621 6.19141C28.9551 5.51953 29.1445 4.91797 29.2305 4.38672C29.2539 4.24219 29.2891 4.14062 29.3359 4.08203C29.3828 4.02344 29.4785 3.99414 29.623 3.99414L31.9141 3.92969C32.0547 3.92969 32.125 3.98438 32.125 4.09375V4.17578C32.125 4.65234 31.9316 5.24219 31.5449 5.94531C31.6621 5.96484 31.8027 5.97461 31.9668 5.97461C32.5801 5.97461 33.1387 5.83398 33.6426 5.55273C33.752 5.49023 33.8438 5.45898 33.918 5.45898C34.0742 5.45898 34.1523 5.53125 34.1523 5.67578C34.1523 5.81641 34.0684 5.95117 33.9004 6.08008C33.3379 6.50977 32.5801 6.72461 31.627 6.72461C31.4043 6.72461 31.2227 6.71289 31.082 6.68945C31.0547 6.73633 31.0098 6.80273 30.9473 6.88867C30.5332 7.4668 29.9355 8.03516 29.1543 8.59375C28.377 9.15234 27.5977 9.59766 26.8164 9.92969C26.0352 10.2617 25.3965 10.4277 24.9004 10.4277C24.5371 10.4277 24.1641 10.293 23.7812 10.0234C23.0156 9.48828 22.6328 8.66797 22.6328 7.5625C22.6328 7.08984 22.7207 6.52734 22.8965 5.875C23.0762 5.22266 23.2773 4.69922 23.5 4.30469C23.625 4.08594 23.7891 3.97461 23.9922 3.9707ZM37.041 8.11328C37.4121 8.55859 37.9941 8.78125 38.7871 8.78125C39.5293 8.78125 40.2988 8.65625 41.0957 8.40625C41.3574 8.32422 41.5508 8.2832 41.6758 8.2832C41.9023 8.2832 42.0156 8.34766 42.0156 8.47656C42.0156 8.66406 41.8672 8.86523 41.5703 9.08008C41.2734 9.29102 40.8984 9.48047 40.4453 9.64844C39.9922 9.81641 39.4785 9.95508 38.9043 10.0645C38.334 10.1777 37.791 10.2344 37.2754 10.2344C36.3613 10.2344 35.5566 10.0918 34.8613 9.80664C34.166 9.52148 33.627 9.11523 33.2441 8.58789C32.8613 8.05664 32.6699 7.47852 32.6699 6.85352C32.6699 6.22461 32.7754 5.64453 32.9863 5.11328C33.1973 4.57812 33.4824 4.0957 33.8418 3.66602C34.2051 3.23633 34.627 2.83789 35.1074 2.4707C35.5918 2.10352 36.1016 1.79688 36.6367 1.55078C37.7812 1.02734 38.8789 0.765625 39.9297 0.765625C40.9805 0.765625 41.7969 0.982422 42.3789 1.41602C42.9609 1.8457 43.252 2.37305 43.252 2.99805C43.252 3.67773 43.0508 4.27344 42.6484 4.78516C42.457 5.03516 42.2012 5.23438 41.8809 5.38281C41.5645 5.53125 41.207 5.60547 40.8086 5.60547C40.543 5.60547 40.3164 5.56836 40.1289 5.49414C39.7734 5.35352 39.5957 5.15234 39.5957 4.89062C39.5957 4.80078 39.6973 4.54688 39.9004 4.12891C40.1074 3.71094 40.3145 3.28125 40.5215 2.83984C40.7285 2.39453 40.832 2.08984 40.832 1.92578C40.832 1.75781 40.7617 1.64258 40.6211 1.58008C40.4805 1.51758 40.2793 1.48633 40.0176 1.48633C39.7598 1.48633 39.4668 1.58594 39.1387 1.78516C38.8105 1.98047 38.4941 2.25 38.1895 2.59375C37.8848 2.93359 37.6055 3.3125 37.3516 3.73047C37.0977 4.14844 36.8945 4.60156 36.7422 5.08984C36.5898 5.57422 36.5137 6.00977 36.5137 6.39648C36.5137 6.7832 36.5566 7.11328 36.6426 7.38672C36.7324 7.66016 36.8652 7.90234 37.041 8.11328ZM44.4707 9.60742C43.7363 9.16602 43.3691 8.49609 43.3691 7.59766C43.3691 7.12891 43.4648 6.68945 43.6562 6.2793C43.8516 5.86523 44.1172 5.50781 44.4531 5.20703C44.793 4.90625 45.1875 4.64844 45.6367 4.43359C46.5352 4 47.5645 3.7832 48.7246 3.7832C51.0059 3.7832 52.2383 4.50586 52.4219 5.95117C52.6953 6.04102 52.9766 6.08594 53.2656 6.08594C53.5586 6.08594 53.8027 6.06445 53.998 6.02148C54.1934 5.97852 54.377 5.91406 54.5488 5.82812C54.7246 5.74219 54.8496 5.69922 54.9238 5.69922C55.0723 5.69922 55.1465 5.77148 55.1465 5.91602C55.1465 6.06055 55.0312 6.21094 54.8008 6.36719C54.3672 6.66406 53.793 6.8125 53.0781 6.8125C52.8086 6.8125 52.5898 6.79883 52.4219 6.77148C52.2969 7.75586 51.7891 8.57422 50.8984 9.22656C50.4727 9.53906 49.9492 9.78516 49.3281 9.96484C48.7109 10.1445 48.0703 10.2344 47.4062 10.2344C46.7461 10.2344 46.1797 10.1816 45.707 10.0762C45.2344 9.97461 44.8223 9.81836 44.4707 9.60742ZM46.5977 8.11328C46.5977 8.83594 46.8613 9.19727 47.3887 9.19727C47.7246 9.19727 48.0371 9.01367 48.3262 8.64648C48.6191 8.2793 48.8457 7.82422 49.0059 7.28125C49.1699 6.73828 49.252 6.18555 49.252 5.62305C49.252 5.05664 49.0547 4.77344 48.6602 4.77344C48.3164 4.77344 47.9824 4.93555 47.6582 5.25977C47.3379 5.58398 47.0801 6.00586 46.8848 6.52539C46.6934 7.04102 46.5977 7.57031 46.5977 8.11328ZM64.9434 8.33008C65.0879 8.33008 65.1602 8.39844 65.1602 8.53516C65.1602 8.66797 65.0879 8.78516 64.9434 8.88672C64.8027 8.98828 64.5938 9.10547 64.3164 9.23828C64.0391 9.36719 63.6934 9.50977 63.2793 9.66602C62.8691 9.82227 62.3926 9.95508 61.8496 10.0645C61.3105 10.1777 60.7949 10.2344 60.3027 10.2344C59.1426 10.2344 58.5625 9.96875 58.5625 9.4375C58.5625 9.09375 58.7578 8.48047 59.1484 7.59766C59.543 6.71094 59.7402 6.11328 59.7402 5.80469C59.7402 5.45703 59.4688 5.2832 58.9258 5.2832C58.6797 5.2832 58.4004 5.31445 58.0879 5.37695C57.9395 5.90039 57.6738 6.73242 57.291 7.87305C56.9121 9.01367 56.6973 9.66211 56.6465 9.81836C56.5996 9.97461 56.4961 10.0527 56.3359 10.0527L53.3184 10.1172C53.2754 10.1172 53.2266 10.0898 53.1719 10.0352C53.1211 9.98438 53.0957 9.92383 53.0957 9.85352C53.0957 9.7793 53.1777 9.52344 53.3418 9.08594C53.5098 8.64453 53.6934 8.17188 53.8926 7.66797C54.0957 7.16016 54.2793 6.60352 54.4434 5.99805C54.6113 5.38867 54.6953 4.88477 54.6953 4.48633L54.6895 4.26367C54.6895 4.06836 54.8789 3.9707 55.2578 3.9707L58.0352 3.90625C58.1367 3.90625 58.2129 3.9375 58.2637 4C58.3145 4.05859 58.3398 4.13281 58.3398 4.22266C58.3398 4.30859 58.3184 4.44922 58.2754 4.64453C59.6504 4.07031 60.7793 3.7832 61.6621 3.7832C62.0371 3.7832 62.3789 3.88672 62.6875 4.09375C63.0312 4.32422 63.2031 4.67383 63.2031 5.14258C63.2031 5.62305 63.0215 6.25195 62.6582 7.0293C62.2949 7.80664 62.1133 8.28711 62.1133 8.4707C62.1133 8.83398 62.2578 9.01562 62.5469 9.01562C62.7305 9.01562 63.043 8.94727 63.4844 8.81055C63.9297 8.66992 64.2578 8.55469 64.4688 8.46484C64.6836 8.375 64.8418 8.33008 64.9434 8.33008Z" fill="black"/>
</svg>
