<svg width="24" height="24" viewBox="0 0 24 24" fill="none" xmlns="http://www.w3.org/2000/svg">
<path d="M10.55 2.53201C10.9558 2.19003 11.4693 2.00247 12 2.00247C12.5307 2.00247 13.0442 2.19003 13.45 2.53201L20.2 8.22401C20.707 8.65201 21 9.28101 21 9.94401V19.254C21 19.7181 20.8156 20.1633 20.4874 20.4914C20.1592 20.8196 19.7141 21.004 19.25 21.004H15.75C15.2859 21.004 14.8408 20.8196 14.5126 20.4914C14.1844 20.1633 14 19.7181 14 19.254V14.247C14 14.1807 13.9737 14.1171 13.9268 14.0702C13.8799 14.0233 13.8163 13.997 13.75 13.997H10.25C10.1837 13.997 10.1201 14.0233 10.0732 14.0702C10.0263 14.1171 10 14.1807 10 14.247V19.254C10 19.7181 9.81563 20.1633 9.48744 20.4914C9.15925 20.8196 8.71413 21.004 8.25 21.004H4.75C4.52019 21.004 4.29262 20.9587 4.0803 20.8708C3.86798 20.7829 3.67507 20.6539 3.51256 20.4914C3.35006 20.3289 3.22116 20.136 3.13321 19.9237C3.04527 19.7114 3 19.4838 3 19.254V9.94401C3 9.28101 3.293 8.65201 3.8 8.22401L10.55 2.53201ZM12.483 3.67901C12.3478 3.56519 12.1767 3.50278 12 3.50278C11.8233 3.50278 11.6522 3.56519 11.517 3.67901L4.767 9.37001C4.68347 9.44032 4.6163 9.52803 4.57018 9.627C4.52406 9.72597 4.50011 9.83382 4.5 9.94301V19.253C4.5 19.391 4.612 19.503 4.75 19.503H8.25C8.3163 19.503 8.37989 19.4767 8.42678 19.4298C8.47366 19.3829 8.5 19.3193 8.5 19.253V14.246C8.5 13.279 9.284 12.496 10.25 12.496H13.75C14.716 12.496 15.5 13.279 15.5 14.246V19.253C15.5 19.391 15.612 19.503 15.75 19.503H19.25C19.3163 19.503 19.3799 19.4767 19.4268 19.4298C19.4737 19.3829 19.5 19.3193 19.5 19.253V9.94301C19.4999 9.83382 19.4759 9.72597 19.4298 9.627C19.3837 9.52803 19.3165 9.44032 19.233 9.37001L12.483 3.67901Z" fill="black"/>
</svg>
