<svg width="28" height="28" viewBox="0 0 28 28" fill="none" xmlns="http://www.w3.org/2000/svg">
<path d="M3 6.75C3 5.75544 3.39509 4.80161 4.09835 4.09835C4.80161 3.39509 5.75544 3 6.75 3H21.25C22.2446 3 23.1984 3.39509 23.9017 4.09835C24.6049 4.80161 25 5.75544 25 6.75V21.25C25 22.2446 24.6049 23.1984 23.9017 23.9017C23.1984 24.6049 22.2446 25 21.25 25H6.75C5.75544 25 4.80161 24.6049 4.09835 23.9017C3.39509 23.1984 3 22.2446 3 21.25V6.75ZM4.5 18.5V21.25C4.5 21.8467 4.73705 22.419 5.15901 22.841C5.58097 23.2629 6.15326 23.5 6.75 23.5H9.5V18.5H4.5ZM9.5 17V11H4.5V17H9.5ZM11 18.5V23.5H17V18.5H11ZM17 17V11H11V17H17ZM18.5 18.5V23.5H21.25C21.8467 23.5 22.419 23.2629 22.841 22.841C23.2629 22.419 23.5 21.8467 23.5 21.25V18.5H18.5ZM23.5 17V11H18.5V17H23.5ZM23.5 6.75C23.5 6.15326 23.2629 5.58097 22.841 5.15901C22.419 4.73705 21.8467 4.5 21.25 4.5H18.5V9.5H23.5V6.75ZM17 4.5H11V9.5H17V4.5ZM9.5 4.5H6.75C6.15326 4.5 5.58097 4.73705 5.15901 5.15901C4.73705 5.58097 4.5 6.15326 4.5 6.75V9.5H9.5V4.5Z" fill="black"/>
</svg>
