<svg width="216" height="76" viewBox="0 0 216 76" fill="none" xmlns="http://www.w3.org/2000/svg">
<path d="M42.624 35.848C42.258 37.6373 41.6073 39.4673 40.672 41.338C39.7367 43.2087 38.6183 44.8963 37.317 46.401C36.0157 47.9057 34.572 49.1257 32.986 50.061C31.4 51.037 29.753 51.525 28.045 51.525H27.923C26.8657 51.525 25.8287 51.2607 24.812 50.732C23.7953 50.244 22.5957 49.7153 21.213 49.146C21.0503 49.0647 20.725 48.9833 20.237 48.902C19.7897 48.78 19.3017 48.6173 18.773 48.414C18.285 48.2107 17.8173 47.9463 17.37 47.621C16.9633 47.255 16.699 46.7873 16.577 46.218V24.258C16.577 23.0787 16.516 21.9807 16.394 20.964C16.272 19.9473 15.967 19.2153 15.479 18.768H16.028C16.9227 18.768 17.8377 18.6257 18.773 18.341C19.749 18.0563 20.542 17.914 21.152 17.914C21.5587 17.914 21.8637 18.0157 22.067 18.219C22.311 18.3817 22.433 18.707 22.433 19.195V45.73C23.2057 45.974 23.775 46.218 24.141 46.462C24.5477 46.6653 24.873 46.8483 25.117 47.011C25.4017 47.1737 25.666 47.316 25.91 47.438C26.154 47.5193 26.52 47.56 27.008 47.56C28.9193 47.56 30.546 47.0313 31.888 45.974C33.2707 44.9167 34.4093 43.4933 35.304 41.704C36.1987 39.9147 36.8493 37.861 37.256 35.543C37.7033 33.1843 37.927 30.7443 37.927 28.223C37.927 26.2303 37.683 24.38 37.195 22.672C36.7477 20.964 35.9547 19.4797 34.816 18.219C33.718 16.9177 32.2133 15.901 30.302 15.169C28.4313 14.3963 26.0523 13.9897 23.165 13.949H22.738C17.004 13.949 12.734 14.742 9.928 16.328C7.16267 17.914 5.78 20.049 5.78 22.733C5.78 23.2617 5.88167 23.709 6.085 24.075C6.24767 24.441 6.43067 24.807 6.634 25.173C6.83733 25.539 7.04067 25.9253 7.244 26.332C7.44733 26.7387 7.56933 27.247 7.61 27.857C7.56933 27.9383 7.40667 28.1823 7.122 28.589C6.878 28.9957 6.67467 29.2193 6.512 29.26C6.43067 29.3007 6.24767 29.321 5.963 29.321C5.51567 29.321 5.00733 29.199 4.438 28.955C3.828 28.6703 3.25867 28.3043 2.73 27.857C2.20133 27.369 1.77433 26.7997 1.449 26.149C1.083 25.4983 0.9 24.7867 0.9 24.014C0.9 22.062 1.61167 20.293 3.035 18.707C4.45833 17.0803 6.30867 15.6977 8.586 14.559C10.904 13.3797 13.466 12.485 16.272 11.875C19.1187 11.2243 21.945 10.899 24.751 10.899C26.459 10.899 28.167 11.0617 29.875 11.387C31.583 11.6717 33.1893 12.18 34.694 12.912C36.2393 13.6033 37.622 14.5183 38.842 15.657C40.062 16.755 41.038 18.1173 41.77 19.744C42.4207 21.0453 42.868 22.4483 43.112 23.953C43.356 25.417 43.478 26.9217 43.478 28.467C43.478 30.907 43.1933 33.3673 42.624 35.848ZM63.5584 40.606C63.5584 41.6227 63.3754 42.7613 63.0094 44.022C62.6434 45.2827 62.0741 46.462 61.3014 47.56C60.5288 48.6173 59.5324 49.512 58.3124 50.244C57.1331 50.976 55.7098 51.342 54.0424 51.342C52.4564 51.342 51.1144 51.0573 50.0164 50.488C48.9184 49.9187 48.0034 49.146 47.2714 48.17C46.5801 47.194 46.0718 46.0553 45.7464 44.754C45.4618 43.412 45.3194 42.009 45.3194 40.545C45.3194 39.1217 45.4821 37.556 45.8074 35.848C46.1328 34.14 46.6411 32.554 47.3324 31.09C48.0238 29.5853 48.8981 28.345 49.9554 27.369C51.0128 26.3523 52.2938 25.844 53.7984 25.844C54.5304 25.844 55.2218 26.0067 55.8724 26.332C56.5231 26.6167 57.0924 27.003 57.5804 27.491C58.0684 27.979 58.4548 28.5483 58.7394 29.199C59.0241 29.8497 59.1868 30.5207 59.2274 31.212L59.2884 32.066C59.2884 33.042 59.1258 34.1197 58.8004 35.299C58.4751 36.4377 58.0074 37.5153 57.3974 38.532C56.7874 39.508 56.0351 40.3417 55.1404 41.033C54.2458 41.6837 53.2291 42.009 52.0904 42.009C51.8871 42.009 51.6228 41.9887 51.2974 41.948C51.0128 41.9073 50.7281 41.8463 50.4434 41.765V43.534C50.4434 43.8187 50.5248 44.2253 50.6874 44.754C50.8908 45.2827 51.1754 45.8113 51.5414 46.34C51.9074 46.828 52.3751 47.2753 52.9444 47.682C53.5544 48.048 54.2864 48.231 55.1404 48.231C56.3198 48.231 57.2754 48.0073 58.0074 47.56C58.7801 47.072 59.4104 46.462 59.8984 45.73C60.3864 44.998 60.7524 44.1847 60.9964 43.29C61.2811 42.3547 61.5048 41.46 61.6674 40.606C61.7894 40.0367 61.9114 39.6503 62.0334 39.447C62.1554 39.2437 62.3588 39.142 62.6434 39.142C63.2534 39.142 63.5584 39.4877 63.5584 40.179V40.606ZM56.3604 31.151C56.3604 30.8257 56.2588 30.48 56.0554 30.114C55.8928 29.748 55.5674 29.565 55.0794 29.565C54.3474 29.565 53.7171 29.9513 53.1884 30.724C52.6598 31.4967 52.2124 32.3913 51.8464 33.408C51.5211 34.384 51.2771 35.3397 51.1144 36.275C50.9518 37.1697 50.8704 37.7593 50.8704 38.044V38.227C50.8704 38.593 50.8908 38.898 50.9314 39.142C51.0128 39.3453 51.2364 39.447 51.6024 39.447H51.9074C52.7208 39.447 53.4121 39.142 53.9814 38.532C54.5508 37.922 54.9981 37.19 55.3234 36.336C55.6894 35.482 55.9538 34.6077 56.1164 33.713C56.2791 32.8183 56.3604 32.0863 56.3604 31.517V31.151ZM81.1588 36.763C81.1588 37.373 81.0368 37.8407 80.7928 38.166C80.5895 38.4913 80.3048 38.7353 79.9388 38.898C79.5728 39.0607 79.1458 39.1827 78.6578 39.264C78.2105 39.3047 77.7632 39.3453 77.3158 39.386V39.691C77.3158 40.545 77.1938 41.6227 76.9498 42.924C76.7058 44.2253 76.3398 45.486 75.8518 46.706C75.4045 47.926 74.8148 48.9833 74.0828 49.878C73.3915 50.7727 72.5578 51.2607 71.5818 51.342C71.3785 51.3827 71.1752 51.403 70.9718 51.403C70.7685 51.403 70.5652 51.403 70.3618 51.403C68.4098 51.403 66.8848 50.9353 65.7868 50C64.6888 49.1053 63.8755 47.9667 63.3468 46.584C62.8182 45.1607 62.4928 43.6153 62.3708 41.948C62.2488 40.2807 62.1878 38.6947 62.1878 37.19C62.1878 33.7333 62.5335 30.2157 63.2248 26.637C63.6722 26.5963 64.0788 26.5353 64.4448 26.454C64.8108 26.332 65.2175 26.271 65.6648 26.271C65.7462 26.271 65.9292 26.271 66.2138 26.271C66.4985 26.271 66.7832 26.2913 67.0678 26.332C67.3932 26.3727 67.6778 26.4337 67.9218 26.515C68.1658 26.5963 68.2878 26.698 68.2878 26.82C68.2878 27.0233 68.2675 27.308 68.2268 27.674C68.1862 27.9993 68.1252 28.3653 68.0438 28.772C68.0032 29.138 67.9422 29.504 67.8608 29.87C67.8202 30.236 67.7795 30.541 67.7388 30.785C67.5355 32.2083 67.3728 33.652 67.2508 35.116C67.1288 36.58 67.0678 38.044 67.0678 39.508C67.0678 40.0773 67.1085 40.8703 67.1898 41.887C67.2712 42.863 67.4338 43.839 67.6778 44.815C67.9218 45.791 68.2675 46.645 68.7148 47.377C69.2028 48.0683 69.8332 48.414 70.6058 48.414C71.3378 48.414 71.9275 48.048 72.3748 47.316C72.8222 46.5433 73.1678 45.669 73.4118 44.693C73.6558 43.6763 73.8185 42.68 73.8998 41.704C73.9812 40.6873 74.0218 39.9147 74.0218 39.386C74.0218 39.1827 73.8795 38.959 73.5948 38.715C73.3508 38.471 73.0458 38.1457 72.6798 37.739C72.3545 37.3323 72.0292 36.8443 71.7038 36.275C71.4192 35.7057 71.2362 35.0143 71.1548 34.201V32.92C71.1548 32.5947 71.1548 32.2083 71.1548 31.761C71.1955 31.3137 71.2362 30.8663 71.2768 30.419C71.3582 29.931 71.4395 29.4837 71.5208 29.077C71.6428 28.6297 71.7852 28.284 71.9478 28.04C71.9478 27.9993 72.0088 27.9383 72.1308 27.857C72.2935 27.7757 72.4562 27.6943 72.6188 27.613C72.7815 27.5317 72.9442 27.4707 73.1068 27.43C73.2695 27.3487 73.3712 27.308 73.4118 27.308C73.5338 27.308 73.6965 27.3283 73.8998 27.369C74.1438 27.4097 74.3878 27.4503 74.6318 27.491C74.9165 27.5317 75.1605 27.5927 75.3638 27.674C75.6078 27.7147 75.7705 27.7553 75.8518 27.796C76.0552 27.918 76.1772 28.1213 76.2178 28.406C76.2585 28.65 76.3195 28.8533 76.4008 29.016C76.6042 29.6667 76.7465 30.2767 76.8278 30.846C76.9498 31.3747 77.0108 31.9237 77.0108 32.493C77.0515 33.0217 77.0718 33.591 77.0718 34.201C77.1125 34.7703 77.1532 35.421 77.1938 36.153C77.1938 36.275 77.3768 36.4173 77.7428 36.58C78.1495 36.702 78.4138 36.763 78.5358 36.763C79.1052 36.763 79.5728 36.6003 79.9388 36.275C80.3048 35.9497 80.5488 35.787 80.6708 35.787C80.8742 35.787 80.9962 35.9293 81.0368 36.214C81.1182 36.458 81.1588 36.641 81.1588 36.763ZM106.621 41.094C106.336 42.192 105.868 43.3307 105.218 44.51C104.608 45.6893 103.835 46.8077 102.9 47.865C101.517 49.451 99.992 50.5083 98.3246 51.037C96.6573 51.5657 95.1526 51.83 93.8106 51.83C89.7846 51.83 86.7956 50.2847 84.8436 47.194C82.9323 44.1033 81.9766 39.6503 81.9766 33.835C81.9766 30.785 82.241 27.9383 82.7696 25.295C83.339 22.6517 84.0913 20.354 85.0266 18.402C85.962 16.4093 87.06 14.8437 88.3206 13.705C89.622 12.5663 91.0046 11.997 92.4686 11.997H93.7496C94.4816 11.997 95.0916 12.0987 95.5796 12.302C96.1083 12.5053 96.5963 12.7697 97.0436 13.095C97.5316 13.3797 98.0196 13.705 98.5076 14.071C98.9956 14.3963 99.6056 14.7217 100.338 15.047C101.558 15.5757 102.371 16.5517 102.778 17.975C103.184 19.3577 103.388 20.842 103.388 22.428C103.388 22.9973 103.367 23.587 103.327 24.197C103.327 24.807 103.225 25.3763 103.022 25.905C102.818 26.393 102.493 26.82 102.046 27.186C101.598 27.552 100.948 27.7757 100.094 27.857C98.9143 27.857 98.101 27.4503 97.6536 26.637C97.2063 25.8237 96.9826 24.9493 96.9826 24.014C96.9826 23.4853 97.0233 22.855 97.1046 22.123C97.186 21.3503 97.2266 20.5777 97.2266 19.805C97.2266 18.7883 97.064 17.8937 96.7386 17.121C96.454 16.3483 95.844 15.962 94.9086 15.962C93.404 15.962 92.1636 16.511 91.1876 17.609C90.2523 18.6663 89.5 20.0287 88.9306 21.696C88.402 23.3633 88.0156 25.2137 87.7716 27.247C87.5683 29.2803 87.4666 31.2527 87.4666 33.164C87.4666 35.116 87.5073 36.9257 87.5886 38.593C87.7106 40.2197 87.975 41.6837 88.3816 42.985C88.7883 44.2863 89.378 45.425 90.1506 46.401C90.9233 47.3363 92.001 48.109 93.3836 48.719C93.953 48.963 94.5833 49.085 95.2746 49.085C96.2913 49.085 97.247 48.8613 98.1416 48.414C99.077 47.926 99.8903 47.2957 100.582 46.523C101.273 45.7503 101.822 44.876 102.229 43.9C102.635 42.8833 102.839 41.8463 102.839 40.789C102.839 39.7317 103.022 38.7963 103.388 37.983C103.794 37.1697 104.445 36.763 105.34 36.763C105.99 36.763 106.417 36.9663 106.621 37.373C106.824 37.7797 106.926 38.2473 106.926 38.776C106.926 39.7113 106.824 40.484 106.621 41.094ZM128.424 32.554C128.587 32.2693 128.871 32.127 129.278 32.127C129.481 32.127 129.624 32.249 129.705 32.493C129.786 32.737 129.827 32.9403 129.827 33.103C129.786 34.3637 129.502 35.5023 128.973 36.519C128.485 37.495 127.956 38.349 127.387 39.081C127.062 39.5283 126.696 39.935 126.289 40.301C125.923 40.667 125.537 41.0127 125.13 41.338C125.089 42.0293 125.049 42.5173 125.008 42.802C125.008 43.046 124.988 43.2493 124.947 43.412C124.866 44.022 124.662 44.7947 124.337 45.73C124.012 46.6653 123.544 47.5803 122.934 48.475C122.365 49.3697 121.653 50.122 120.799 50.732C119.986 51.3827 119.03 51.708 117.932 51.708C117.566 51.708 117.139 51.6673 116.651 51.586C116.204 51.5047 115.736 51.3827 115.248 51.22C114.76 51.098 114.292 50.9353 113.845 50.732C113.398 50.5693 113.011 50.3863 112.686 50.183C111.669 49.6137 110.836 48.9427 110.185 48.17C109.534 47.3973 109.026 46.584 108.66 45.73C108.335 44.8353 108.111 43.9407 107.989 43.046C107.867 42.1107 107.806 41.216 107.806 40.362C107.806 38.898 107.948 37.4137 108.233 35.909C108.558 34.4043 108.945 32.9607 109.392 31.578C109.839 30.1953 110.348 28.955 110.917 27.857C111.486 26.759 112.035 25.905 112.564 25.295C113.093 24.7257 113.682 24.3393 114.333 24.136C114.984 23.892 115.573 23.77 116.102 23.77C116.753 23.77 117.403 23.9327 118.054 24.258C118.705 24.5833 119.335 24.99 119.945 25.478C120.555 25.966 121.145 26.5353 121.714 27.186C122.324 27.796 122.893 28.406 123.422 29.016C123.829 29.4633 124.134 30.1953 124.337 31.212C124.54 32.188 124.703 33.1843 124.825 34.201C124.906 34.7703 124.967 35.3803 125.008 36.031C125.049 36.6817 125.069 37.3527 125.069 38.044C125.679 37.556 126.167 37.0477 126.533 36.519C126.899 35.9497 127.184 35.421 127.387 34.933C127.631 34.445 127.814 33.9977 127.936 33.591C128.099 33.1437 128.261 32.798 128.424 32.554ZM121.531 37.8C121.531 37.6373 121.511 37.2713 121.47 36.702C121.47 36.1327 121.429 35.4617 121.348 34.689C121.307 33.9163 121.206 33.1233 121.043 32.31C120.921 31.456 120.718 30.6833 120.433 29.992C120.189 29.3007 119.864 28.7313 119.457 28.284C119.05 27.796 118.542 27.552 117.932 27.552C117.322 27.552 116.732 27.796 116.163 28.284C115.594 28.772 115.085 29.4023 114.638 30.175C114.191 30.9477 113.825 31.822 113.54 32.798C113.296 33.774 113.174 34.7297 113.174 35.665C113.174 37.2917 113.499 38.4913 114.15 39.264C114.801 39.996 115.919 40.362 117.505 40.362C118.684 40.362 119.64 40.179 120.372 39.813C121.145 39.447 121.531 39.1623 121.531 38.959V37.8ZM121.226 42.802C120.738 43.1273 120.067 43.3713 119.213 43.534C118.359 43.6967 117.647 43.778 117.078 43.778C115.98 43.778 115.126 43.6967 114.516 43.534C113.947 43.3713 113.316 43.046 112.625 42.558L112.564 43.839C112.564 44.2863 112.625 44.754 112.747 45.242C112.869 45.73 113.052 46.1773 113.296 46.584C113.581 46.9907 113.967 47.3363 114.455 47.621C114.943 47.865 115.553 47.987 116.285 47.987C117.18 47.987 117.932 47.8243 118.542 47.499C119.193 47.133 119.701 46.6857 120.067 46.157C120.474 45.6283 120.758 45.059 120.921 44.449C121.124 43.839 121.226 43.29 121.226 42.802ZM137.522 36.702C136.912 37.556 136.404 38.5117 135.997 39.569C135.631 40.5857 135.306 41.6633 135.021 42.802C134.736 43.9 134.492 45.0183 134.289 46.157C134.126 47.255 133.943 48.3123 133.74 49.329C133.659 49.573 133.333 49.7357 132.764 49.817C132.235 49.8983 131.849 49.939 131.605 49.939C130.873 49.939 130.263 49.8983 129.775 49.817C129.328 49.7357 128.982 49.5527 128.738 49.268C128.494 48.9427 128.311 48.475 128.189 47.865C128.067 47.2143 127.965 46.3603 127.884 45.303L128.677 27.186C128.677 26.6573 128.962 26.393 129.531 26.393C129.734 26.393 130.019 26.4337 130.385 26.515C130.751 26.5557 131.137 26.637 131.544 26.759C131.951 26.881 132.296 27.0437 132.581 27.247C132.866 27.4097 133.008 27.613 133.008 27.857V40.24C133.049 40.1993 133.11 40.0367 133.191 39.752C133.476 39.02 133.821 38.1253 134.228 37.068C134.635 35.97 135.082 34.933 135.57 33.957C136.058 32.981 136.566 32.1473 137.095 31.456C137.664 30.7647 138.234 30.419 138.803 30.419C139.535 30.419 140.084 30.602 140.45 30.968C140.857 31.2933 141.162 31.7203 141.365 32.249C141.568 32.7777 141.69 33.347 141.731 33.957C141.772 34.567 141.792 35.1567 141.792 35.726C141.792 36.1327 141.751 36.8037 141.67 37.739C141.589 38.6743 141.548 40.0773 141.548 41.948C141.548 43.0053 141.65 43.961 141.853 44.815C142.056 45.669 142.463 46.096 143.073 46.096C143.52 46.096 143.927 45.8927 144.293 45.486C144.659 45.0793 144.984 44.571 145.269 43.961C145.594 43.351 145.859 42.7003 146.062 42.009C146.265 41.3177 146.387 40.667 146.428 40.057C146.469 39.2843 146.774 38.898 147.343 38.898C147.709 38.898 147.953 39.02 148.075 39.264C148.197 39.508 148.258 39.7927 148.258 40.118V40.24C148.217 41.0533 148.055 41.9683 147.77 42.985C147.526 44.0017 147.14 44.9573 146.611 45.852C146.123 46.7467 145.472 47.499 144.659 48.109C143.846 48.719 142.849 49.024 141.67 49.024C139.84 49.024 138.661 48.3733 138.132 47.072C137.644 45.73 137.4 43.7577 137.4 41.155L137.522 36.702ZM156.108 36.702C155.498 37.556 154.989 38.5117 154.583 39.569C154.217 40.5857 153.891 41.6633 153.607 42.802C153.322 43.9 153.078 45.0183 152.875 46.157C152.712 47.255 152.529 48.3123 152.326 49.329C152.244 49.573 151.919 49.7357 151.35 49.817C150.821 49.8983 150.435 49.939 150.191 49.939C149.459 49.939 148.849 49.8983 148.361 49.817C147.913 49.7357 147.568 49.5527 147.324 49.268C147.08 48.9427 146.897 48.475 146.775 47.865C146.653 47.2143 146.551 46.3603 146.47 45.303L147.263 27.186C147.263 26.6573 147.547 26.393 148.117 26.393C148.32 26.393 148.605 26.4337 148.971 26.515C149.337 26.5557 149.723 26.637 150.13 26.759C150.536 26.881 150.882 27.0437 151.167 27.247C151.451 27.4097 151.594 27.613 151.594 27.857V40.24C151.634 40.1993 151.695 40.0367 151.777 39.752C152.061 39.02 152.407 38.1253 152.814 37.068C153.22 35.97 153.668 34.933 154.156 33.957C154.644 32.981 155.152 32.1473 155.681 31.456C156.25 30.7647 156.819 30.419 157.389 30.419C158.121 30.419 158.67 30.602 159.036 30.968C159.442 31.2933 159.747 31.7203 159.951 32.249C160.154 32.7777 160.276 33.347 160.317 33.957C160.357 34.567 160.378 35.1567 160.378 35.726C160.378 36.1327 160.337 36.8037 160.256 37.739C160.174 38.6743 160.134 40.0773 160.134 41.948C160.134 43.0053 160.235 43.961 160.439 44.815C160.642 45.669 161.049 46.096 161.659 46.096C162.106 46.096 162.513 45.8927 162.879 45.486C163.245 45.0793 163.57 44.571 163.855 43.961C164.18 43.351 164.444 42.7003 164.648 42.009C164.851 41.3177 164.973 40.667 165.014 40.057C165.054 39.2843 165.359 38.898 165.929 38.898C166.295 38.898 166.539 39.02 166.661 39.264C166.783 39.508 166.844 39.7927 166.844 40.118V40.24C166.803 41.0533 166.64 41.9683 166.356 42.985C166.112 44.0017 165.725 44.9573 165.197 45.852C164.709 46.7467 164.058 47.499 163.245 48.109C162.431 48.719 161.435 49.024 160.256 49.024C158.426 49.024 157.246 48.3733 156.718 47.072C156.23 45.73 155.986 43.7577 155.986 41.155L156.108 36.702ZM183.295 40.606C183.295 41.6227 183.112 42.7613 182.746 44.022C182.38 45.2827 181.81 46.462 181.038 47.56C180.265 48.6173 179.269 49.512 178.049 50.244C176.869 50.976 175.446 51.342 173.779 51.342C172.193 51.342 170.851 51.0573 169.753 50.488C168.655 49.9187 167.74 49.146 167.008 48.17C166.316 47.194 165.808 46.0553 165.483 44.754C165.198 43.412 165.056 42.009 165.056 40.545C165.056 39.1217 165.218 37.556 165.544 35.848C165.869 34.14 166.377 32.554 167.069 31.09C167.76 29.5853 168.634 28.345 169.692 27.369C170.749 26.3523 172.03 25.844 173.535 25.844C174.267 25.844 174.958 26.0067 175.609 26.332C176.259 26.6167 176.829 27.003 177.317 27.491C177.805 27.979 178.191 28.5483 178.476 29.199C178.76 29.8497 178.923 30.5207 178.964 31.212L179.025 32.066C179.025 33.042 178.862 34.1197 178.537 35.299C178.211 36.4377 177.744 37.5153 177.134 38.532C176.524 39.508 175.771 40.3417 174.877 41.033C173.982 41.6837 172.965 42.009 171.827 42.009C171.623 42.009 171.359 41.9887 171.034 41.948C170.749 41.9073 170.464 41.8463 170.18 41.765V43.534C170.18 43.8187 170.261 44.2253 170.424 44.754C170.627 45.2827 170.912 45.8113 171.278 46.34C171.644 46.828 172.111 47.2753 172.681 47.682C173.291 48.048 174.023 48.231 174.877 48.231C176.056 48.231 177.012 48.0073 177.744 47.56C178.516 47.072 179.147 46.462 179.635 45.73C180.123 44.998 180.489 44.1847 180.733 43.29C181.017 42.3547 181.241 41.46 181.404 40.606C181.526 40.0367 181.648 39.6503 181.77 39.447C181.892 39.2437 182.095 39.142 182.38 39.142C182.99 39.142 183.295 39.4877 183.295 40.179V40.606ZM176.097 31.151C176.097 30.8257 175.995 30.48 175.792 30.114C175.629 29.748 175.304 29.565 174.816 29.565C174.084 29.565 173.453 29.9513 172.925 30.724C172.396 31.4967 171.949 32.3913 171.583 33.408C171.257 34.384 171.013 35.3397 170.851 36.275C170.688 37.1697 170.607 37.7593 170.607 38.044V38.227C170.607 38.593 170.627 38.898 170.668 39.142C170.749 39.3453 170.973 39.447 171.339 39.447H171.644C172.457 39.447 173.148 39.142 173.718 38.532C174.287 37.922 174.734 37.19 175.06 36.336C175.426 35.482 175.69 34.6077 175.853 33.713C176.015 32.8183 176.097 32.0863 176.097 31.517V31.151ZM199.919 44.51C198.943 46.828 197.683 48.5157 196.137 49.573C194.633 50.5897 192.843 51.098 190.769 51.098C190.566 51.098 190.363 51.098 190.159 51.098C189.997 51.098 189.814 51.0777 189.61 51.037C188.594 50.915 187.618 50.5897 186.682 50.061C185.747 49.573 184.934 48.8817 184.242 47.987C183.551 47.0517 183.002 45.9333 182.595 44.632C182.189 43.29 181.985 41.765 181.985 40.057C181.985 38.4303 182.189 36.7223 182.595 34.933C183.043 33.1437 183.917 31.517 185.218 30.053C186.357 28.7517 187.679 27.7147 189.183 26.942C190.729 26.1693 192.294 25.783 193.88 25.783C194.653 25.783 195.344 25.905 195.954 26.149C196.605 26.3523 196.971 26.6167 197.052 26.942C197.134 27.3893 197.174 27.9587 197.174 28.65C197.215 29.3007 197.235 30.175 197.235 31.273C197.235 32.2083 197.154 32.8997 196.991 33.347C196.869 33.7943 196.585 34.018 196.137 34.018C195.649 33.9773 195.304 33.7333 195.1 33.286C194.897 32.798 194.694 32.2897 194.49 31.761C194.287 31.1917 194.023 30.6833 193.697 30.236C193.372 29.748 192.843 29.4837 192.111 29.443C191.054 29.443 190.18 29.8497 189.488 30.663C188.797 31.4763 188.248 32.432 187.841 33.53C187.475 34.628 187.211 35.726 187.048 36.824C186.926 37.922 186.865 38.776 186.865 39.386C186.865 41.7447 187.211 43.778 187.902 45.486C188.634 47.1533 189.915 48.0683 191.745 48.231L192.416 48.292C193.677 48.292 194.694 47.987 195.466 47.377C196.239 46.7263 196.849 46.035 197.296 45.303C197.784 44.5303 198.15 43.839 198.394 43.229C198.679 42.5783 198.964 42.253 199.248 42.253H199.431C199.96 42.2937 200.224 42.6393 200.224 43.29C200.224 43.5747 200.123 43.9813 199.919 44.51ZM201.208 38.959C201.249 36.885 201.31 34.7703 201.391 32.615C201.473 30.4597 201.554 28.467 201.635 26.637C201.635 26.3117 201.31 26.088 200.659 25.966C200.009 25.844 199.277 25.722 198.463 25.6C197.65 25.478 196.918 25.295 196.267 25.051C195.617 24.7663 195.291 24.319 195.291 23.709C195.291 23.1803 195.82 22.8753 196.877 22.794C197.935 22.7127 199.5 22.672 201.574 22.672C201.737 22.672 201.839 22.428 201.879 21.94C201.961 21.452 202.001 20.842 202.001 20.11C202.042 19.3373 202.062 18.524 202.062 17.67C202.103 16.816 202.144 16.023 202.184 15.291C202.225 14.5183 202.286 13.888 202.367 13.4C202.489 12.912 202.632 12.668 202.794 12.668C202.998 12.668 203.364 12.7087 203.892 12.79C204.421 12.8713 204.97 12.9933 205.539 13.156C206.109 13.278 206.597 13.4407 207.003 13.644C207.451 13.8473 207.674 14.071 207.674 14.315L207.003 22.245C207.003 22.489 207.207 22.672 207.613 22.794C208.061 22.8753 208.61 22.9363 209.26 22.977C209.952 22.977 210.663 22.977 211.395 22.977C212.168 22.977 212.88 23.038 213.53 23.16C214.222 23.282 214.771 23.4853 215.177 23.77C215.625 24.014 215.848 24.4003 215.848 24.929C215.848 25.0103 215.808 25.1527 215.726 25.356C215.645 25.5187 215.543 25.6 215.421 25.6C215.34 25.6 215.218 25.539 215.055 25.417C214.933 25.295 214.567 25.234 213.957 25.234C213.795 25.234 213.347 25.2543 212.615 25.295C211.883 25.3357 211.111 25.3967 210.297 25.478C209.484 25.5593 208.732 25.661 208.04 25.783C207.39 25.8643 207.024 25.9863 206.942 26.149C206.902 26.2303 206.841 26.7183 206.759 27.613C206.719 28.467 206.658 29.6057 206.576 31.029C206.536 32.4523 206.495 34.0993 206.454 35.97C206.414 37.8 206.393 39.7317 206.393 41.765C206.393 42.5377 206.434 43.29 206.515 44.022C206.597 44.754 206.719 45.425 206.881 46.035C207.044 46.6043 207.247 47.072 207.491 47.438C207.776 47.804 208.101 47.987 208.467 47.987C208.996 47.987 209.484 47.7633 209.931 47.316C210.379 46.8687 210.785 46.2587 211.151 45.486C211.517 44.7133 211.843 43.839 212.127 42.863C212.412 41.887 212.656 40.8907 212.859 39.874C212.981 39.264 213.124 38.837 213.286 38.593C213.449 38.3083 213.693 38.166 214.018 38.166C214.303 38.166 214.547 38.2677 214.75 38.471C214.994 38.6337 215.116 39.0403 215.116 39.691C215.116 40.0977 215.096 40.362 215.055 40.484C214.933 41.216 214.689 42.2327 214.323 43.534C213.998 44.7947 213.53 46.0553 212.92 47.316C212.351 48.536 211.639 49.6137 210.785 50.549C209.931 51.4843 208.935 51.952 207.796 51.952C206.698 51.952 205.743 51.6267 204.929 50.976C204.116 50.366 203.425 49.512 202.855 48.414C202.327 47.2753 201.92 45.9537 201.635 44.449C201.351 42.9037 201.208 41.2567 201.208 39.508V38.959Z" fill="black"/>
</svg>
