<svg width="66" height="23" viewBox="0 0 66 23" fill="none" xmlns="http://www.w3.org/2000/svg">
<path d="M18.768 15.736C18.606 16.528 18.318 17.338 17.904 18.166C17.49 18.994 16.995 19.741 16.419 20.407C15.843 21.073 15.204 21.613 14.502 22.027C13.8 22.459 13.071 22.675 12.315 22.675H12.261C11.793 22.675 11.334 22.558 10.884 22.324C10.434 22.108 9.903 21.874 9.291 21.622C9.219 21.586 9.075 21.55 8.859 21.514C8.661 21.46 8.445 21.388 8.211 21.298C7.995 21.208 7.788 21.091 7.59 20.947C7.41 20.785 7.293 20.578 7.239 20.326V10.606C7.239 10.084 7.212 9.598 7.158 9.148C7.104 8.698 6.969 8.374 6.753 8.176H6.996C7.392 8.176 7.797 8.113 8.211 7.987C8.643 7.861 8.994 7.798 9.264 7.798C9.444 7.798 9.579 7.843 9.669 7.933C9.777 8.005 9.831 8.149 9.831 8.365V20.11C10.173 20.218 10.425 20.326 10.587 20.434C10.767 20.524 10.911 20.605 11.019 20.677C11.145 20.749 11.262 20.812 11.37 20.866C11.478 20.902 11.64 20.92 11.856 20.92C12.702 20.92 13.422 20.686 14.016 20.218C14.628 19.75 15.132 19.12 15.528 18.328C15.924 17.536 16.212 16.627 16.392 15.601C16.59 14.557 16.689 13.477 16.689 12.361C16.689 11.479 16.581 10.66 16.365 9.904C16.167 9.148 15.816 8.491 15.312 7.933C14.826 7.357 14.16 6.907 13.314 6.583C12.486 6.241 11.433 6.061 10.155 6.043H9.966C7.428 6.043 5.538 6.394 4.296 7.096C3.072 7.798 2.46 8.743 2.46 9.931C2.46 10.165 2.505 10.363 2.595 10.525C2.667 10.687 2.748 10.849 2.838 11.011C2.928 11.173 3.018 11.344 3.108 11.524C3.198 11.704 3.252 11.929 3.27 12.199C3.252 12.235 3.18 12.343 3.054 12.523C2.946 12.703 2.856 12.802 2.784 12.82C2.748 12.838 2.667 12.847 2.541 12.847C2.343 12.847 2.118 12.793 1.866 12.685C1.596 12.559 1.344 12.397 1.11 12.199C0.876 11.983 0.687 11.731 0.543 11.443C0.381 11.155 0.3 10.84 0.3 10.498C0.3 9.634 0.615 8.851 1.245 8.149C1.875 7.429 2.694 6.817 3.702 6.313C4.728 5.791 5.862 5.395 7.104 5.125C8.364 4.837 9.615 4.693 10.857 4.693C11.613 4.693 12.369 4.765 13.125 4.909C13.881 5.035 14.592 5.26 15.258 5.584C15.942 5.89 16.554 6.295 17.094 6.799C17.634 7.285 18.066 7.888 18.39 8.608C18.678 9.184 18.876 9.805 18.984 10.471C19.092 11.119 19.146 11.785 19.146 12.469C19.146 13.549 19.02 14.638 18.768 15.736ZM28.0341 17.842C28.0341 18.292 27.9531 18.796 27.7911 19.354C27.6291 19.912 27.3771 20.434 27.0351 20.92C26.6931 21.388 26.2521 21.784 25.7121 22.108C25.1901 22.432 24.5601 22.594 23.8221 22.594C23.1201 22.594 22.5261 22.468 22.0401 22.216C21.5541 21.964 21.1491 21.622 20.8251 21.19C20.5191 20.758 20.2941 20.254 20.1501 19.678C20.0241 19.084 19.9611 18.463 19.9611 17.815C19.9611 17.185 20.0331 16.492 20.1771 15.736C20.3211 14.98 20.5461 14.278 20.8521 13.63C21.1581 12.964 21.5451 12.415 22.0131 11.983C22.4811 11.533 23.0481 11.308 23.7141 11.308C24.0381 11.308 24.3441 11.38 24.6321 11.524C24.9201 11.65 25.1721 11.821 25.3881 12.037C25.6041 12.253 25.7751 12.505 25.9011 12.793C26.0271 13.081 26.0991 13.378 26.1171 13.684L26.1441 14.062C26.1441 14.494 26.0721 14.971 25.9281 15.493C25.7841 15.997 25.5771 16.474 25.3071 16.924C25.0371 17.356 24.7041 17.725 24.3081 18.031C23.9121 18.319 23.4621 18.463 22.9581 18.463C22.8681 18.463 22.7511 18.454 22.6071 18.436C22.4811 18.418 22.3551 18.391 22.2291 18.355V19.138C22.2291 19.264 22.2651 19.444 22.3371 19.678C22.4271 19.912 22.5531 20.146 22.7151 20.38C22.8771 20.596 23.0841 20.794 23.3361 20.974C23.6061 21.136 23.9301 21.217 24.3081 21.217C24.8301 21.217 25.2531 21.118 25.5771 20.92C25.9191 20.704 26.1981 20.434 26.4141 20.11C26.6301 19.786 26.7921 19.426 26.9001 19.03C27.0261 18.616 27.1251 18.22 27.1971 17.842C27.2511 17.59 27.3051 17.419 27.3591 17.329C27.4131 17.239 27.5031 17.194 27.6291 17.194C27.8991 17.194 28.0341 17.347 28.0341 17.653V17.842ZM24.8481 13.657C24.8481 13.513 24.8031 13.36 24.7131 13.198C24.6411 13.036 24.4971 12.955 24.2811 12.955C23.9571 12.955 23.6781 13.126 23.4441 13.468C23.2101 13.81 23.0121 14.206 22.8501 14.656C22.7061 15.088 22.5981 15.511 22.5261 15.925C22.4541 16.321 22.4181 16.582 22.4181 16.708V16.789C22.4181 16.951 22.4271 17.086 22.4451 17.194C22.4811 17.284 22.5801 17.329 22.7421 17.329H22.8771C23.2371 17.329 23.5431 17.194 23.7951 16.924C24.0471 16.654 24.2451 16.33 24.3891 15.952C24.5511 15.574 24.6681 15.187 24.7401 14.791C24.8121 14.395 24.8481 14.071 24.8481 13.819V13.657ZM35.8244 16.141C35.8244 16.411 35.7704 16.618 35.6624 16.762C35.5724 16.906 35.4464 17.014 35.2844 17.086C35.1224 17.158 34.9334 17.212 34.7174 17.248C34.5194 17.266 34.3214 17.284 34.1234 17.302V17.437C34.1234 17.815 34.0694 18.292 33.9614 18.868C33.8534 19.444 33.6914 20.002 33.4754 20.542C33.2774 21.082 33.0164 21.55 32.6924 21.946C32.3864 22.342 32.0174 22.558 31.5854 22.594C31.4954 22.612 31.4054 22.621 31.3154 22.621C31.2254 22.621 31.1354 22.621 31.0454 22.621C30.1814 22.621 29.5064 22.414 29.0204 22C28.5344 21.604 28.1744 21.1 27.9404 20.488C27.7064 19.858 27.5624 19.174 27.5084 18.436C27.4544 17.698 27.4274 16.996 27.4274 16.33C27.4274 14.8 27.5804 13.243 27.8864 11.659C28.0844 11.641 28.2644 11.614 28.4264 11.578C28.5884 11.524 28.7684 11.497 28.9664 11.497C29.0024 11.497 29.0834 11.497 29.2094 11.497C29.3354 11.497 29.4614 11.506 29.5874 11.524C29.7314 11.542 29.8574 11.569 29.9654 11.605C30.0734 11.641 30.1274 11.686 30.1274 11.74C30.1274 11.83 30.1184 11.956 30.1004 12.118C30.0824 12.262 30.0554 12.424 30.0194 12.604C30.0014 12.766 29.9744 12.928 29.9384 13.09C29.9204 13.252 29.9024 13.387 29.8844 13.495C29.7944 14.125 29.7224 14.764 29.6684 15.412C29.6144 16.06 29.5874 16.708 29.5874 17.356C29.5874 17.608 29.6054 17.959 29.6414 18.409C29.6774 18.841 29.7494 19.273 29.8574 19.705C29.9654 20.137 30.1184 20.515 30.3164 20.839C30.5324 21.145 30.8114 21.298 31.1534 21.298C31.4774 21.298 31.7384 21.136 31.9364 20.812C32.1344 20.47 32.2874 20.083 32.3954 19.651C32.5034 19.201 32.5754 18.76 32.6114 18.328C32.6474 17.878 32.6654 17.536 32.6654 17.302C32.6654 17.212 32.6024 17.113 32.4764 17.005C32.3684 16.897 32.2334 16.753 32.0714 16.573C31.9274 16.393 31.7834 16.177 31.6394 15.925C31.5134 15.673 31.4324 15.367 31.3964 15.007V14.44C31.3964 14.296 31.3964 14.125 31.3964 13.927C31.4144 13.729 31.4324 13.531 31.4504 13.333C31.4864 13.117 31.5224 12.919 31.5584 12.739C31.6124 12.541 31.6754 12.388 31.7474 12.28C31.7474 12.262 31.7744 12.235 31.8284 12.199C31.9004 12.163 31.9724 12.127 32.0444 12.091C32.1164 12.055 32.1884 12.028 32.2604 12.01C32.3324 11.974 32.3774 11.956 32.3954 11.956C32.4494 11.956 32.5214 11.965 32.6114 11.983C32.7194 12.001 32.8274 12.019 32.9354 12.037C33.0614 12.055 33.1694 12.082 33.2594 12.118C33.3674 12.136 33.4394 12.154 33.4754 12.172C33.5654 12.226 33.6194 12.316 33.6374 12.442C33.6554 12.55 33.6824 12.64 33.7184 12.712C33.8084 13 33.8714 13.27 33.9074 13.522C33.9614 13.756 33.9884 13.999 33.9884 14.251C34.0064 14.485 34.0154 14.737 34.0154 15.007C34.0334 15.259 34.0514 15.547 34.0694 15.871C34.0694 15.925 34.1504 15.988 34.3124 16.06C34.4924 16.114 34.6094 16.141 34.6634 16.141C34.9154 16.141 35.1224 16.069 35.2844 15.925C35.4464 15.781 35.5544 15.709 35.6084 15.709C35.6984 15.709 35.7524 15.772 35.7704 15.898C35.8064 16.006 35.8244 16.087 35.8244 16.141ZM47.0944 18.058C46.9684 18.544 46.7614 19.048 46.4734 19.57C46.2034 20.092 45.8614 20.587 45.4474 21.055C44.8354 21.757 44.1604 22.225 43.4224 22.459C42.6844 22.693 42.0184 22.81 41.4244 22.81C39.6424 22.81 38.3194 22.126 37.4554 20.758C36.6094 19.39 36.1864 17.419 36.1864 14.845C36.1864 13.495 36.3034 12.235 36.5374 11.065C36.7894 9.895 37.1224 8.878 37.5364 8.014C37.9504 7.132 38.4364 6.439 38.9944 5.935C39.5704 5.431 40.1824 5.179 40.8304 5.179H41.3974C41.7214 5.179 41.9914 5.224 42.2074 5.314C42.4414 5.404 42.6574 5.521 42.8554 5.665C43.0714 5.791 43.2874 5.935 43.5034 6.097C43.7194 6.241 43.9894 6.385 44.3134 6.529C44.8534 6.763 45.2134 7.195 45.3934 7.825C45.5734 8.437 45.6634 9.094 45.6634 9.796C45.6634 10.048 45.6544 10.309 45.6364 10.579C45.6364 10.849 45.5914 11.101 45.5014 11.335C45.4114 11.551 45.2674 11.74 45.0694 11.902C44.8714 12.064 44.5834 12.163 44.2054 12.199C43.6834 12.199 43.3234 12.019 43.1254 11.659C42.9274 11.299 42.8284 10.912 42.8284 10.498C42.8284 10.264 42.8464 9.985 42.8824 9.661C42.9184 9.319 42.9364 8.977 42.9364 8.635C42.9364 8.185 42.8644 7.789 42.7204 7.447C42.5944 7.105 42.3244 6.934 41.9104 6.934C41.2444 6.934 40.6954 7.177 40.2634 7.663C39.8494 8.131 39.5164 8.734 39.2644 9.472C39.0304 10.21 38.8594 11.029 38.7514 11.929C38.6614 12.829 38.6164 13.702 38.6164 14.548C38.6164 15.412 38.6344 16.213 38.6704 16.951C38.7244 17.671 38.8414 18.319 39.0214 18.895C39.2014 19.471 39.4624 19.975 39.8044 20.407C40.1464 20.821 40.6234 21.163 41.2354 21.433C41.4874 21.541 41.7664 21.595 42.0724 21.595C42.5224 21.595 42.9454 21.496 43.3414 21.298C43.7554 21.082 44.1154 20.803 44.4214 20.461C44.7274 20.119 44.9704 19.732 45.1504 19.3C45.3304 18.85 45.4204 18.391 45.4204 17.923C45.4204 17.455 45.5014 17.041 45.6634 16.681C45.8434 16.321 46.1314 16.141 46.5274 16.141C46.8154 16.141 47.0044 16.231 47.0944 16.411C47.1844 16.591 47.2294 16.798 47.2294 17.032C47.2294 17.446 47.1844 17.788 47.0944 18.058ZM56.745 14.278C56.817 14.152 56.943 14.089 57.123 14.089C57.213 14.089 57.276 14.143 57.312 14.251C57.348 14.359 57.366 14.449 57.366 14.521C57.348 15.079 57.222 15.583 56.988 16.033C56.772 16.465 56.538 16.843 56.286 17.167C56.142 17.365 55.98 17.545 55.8 17.707C55.638 17.869 55.467 18.022 55.287 18.166C55.269 18.472 55.251 18.688 55.233 18.814C55.233 18.922 55.224 19.012 55.206 19.084C55.17 19.354 55.08 19.696 54.936 20.11C54.792 20.524 54.585 20.929 54.315 21.325C54.063 21.721 53.748 22.054 53.37 22.324C53.01 22.612 52.587 22.756 52.101 22.756C51.939 22.756 51.75 22.738 51.534 22.702C51.336 22.666 51.129 22.612 50.913 22.54C50.697 22.486 50.49 22.414 50.292 22.324C50.094 22.252 49.923 22.171 49.779 22.081C49.329 21.829 48.96 21.532 48.672 21.19C48.384 20.848 48.159 20.488 47.997 20.11C47.853 19.714 47.754 19.318 47.7 18.922C47.646 18.508 47.619 18.112 47.619 17.734C47.619 17.086 47.682 16.429 47.808 15.763C47.952 15.097 48.123 14.458 48.321 13.846C48.519 13.234 48.744 12.685 48.996 12.199C49.248 11.713 49.491 11.335 49.725 11.065C49.959 10.813 50.22 10.642 50.508 10.552C50.796 10.444 51.057 10.39 51.291 10.39C51.579 10.39 51.867 10.462 52.155 10.606C52.443 10.75 52.722 10.93 52.992 11.146C53.262 11.362 53.523 11.614 53.775 11.902C54.045 12.172 54.297 12.442 54.531 12.712C54.711 12.91 54.846 13.234 54.936 13.684C55.026 14.116 55.098 14.557 55.152 15.007C55.188 15.259 55.215 15.529 55.233 15.817C55.251 16.105 55.26 16.402 55.26 16.708C55.53 16.492 55.746 16.267 55.908 16.033C56.07 15.781 56.196 15.547 56.286 15.331C56.394 15.115 56.475 14.917 56.529 14.737C56.601 14.539 56.673 14.386 56.745 14.278ZM53.694 16.6C53.694 16.528 53.685 16.366 53.667 16.114C53.667 15.862 53.649 15.565 53.613 15.223C53.595 14.881 53.55 14.53 53.478 14.17C53.424 13.792 53.334 13.45 53.208 13.144C53.1 12.838 52.956 12.586 52.776 12.388C52.596 12.172 52.371 12.064 52.101 12.064C51.831 12.064 51.57 12.172 51.318 12.388C51.066 12.604 50.841 12.883 50.643 13.225C50.445 13.567 50.283 13.954 50.157 14.386C50.049 14.818 49.995 15.241 49.995 15.655C49.995 16.375 50.139 16.906 50.427 17.248C50.715 17.572 51.21 17.734 51.912 17.734C52.434 17.734 52.857 17.653 53.181 17.491C53.523 17.329 53.694 17.203 53.694 17.113V16.6ZM53.559 18.814C53.343 18.958 53.046 19.066 52.668 19.138C52.29 19.21 51.975 19.246 51.723 19.246C51.237 19.246 50.859 19.21 50.589 19.138C50.337 19.066 50.058 18.922 49.752 18.706L49.725 19.273C49.725 19.471 49.752 19.678 49.806 19.894C49.86 20.11 49.941 20.308 50.049 20.488C50.175 20.668 50.346 20.821 50.562 20.947C50.778 21.055 51.048 21.109 51.372 21.109C51.768 21.109 52.101 21.037 52.371 20.893C52.659 20.731 52.884 20.533 53.046 20.299C53.226 20.065 53.352 19.813 53.424 19.543C53.514 19.273 53.559 19.03 53.559 18.814ZM60.772 16.114C60.502 16.492 60.277 16.915 60.097 17.383C59.935 17.833 59.791 18.31 59.665 18.814C59.539 19.3 59.431 19.795 59.341 20.299C59.269 20.785 59.188 21.253 59.098 21.703C59.062 21.811 58.918 21.883 58.666 21.919C58.432 21.955 58.261 21.973 58.153 21.973C57.829 21.973 57.559 21.955 57.343 21.919C57.145 21.883 56.992 21.802 56.884 21.676C56.776 21.532 56.695 21.325 56.641 21.055C56.587 20.767 56.542 20.389 56.506 19.921L56.857 11.902C56.857 11.668 56.983 11.551 57.235 11.551C57.325 11.551 57.451 11.569 57.613 11.605C57.775 11.623 57.946 11.659 58.126 11.713C58.306 11.767 58.459 11.839 58.585 11.929C58.711 12.001 58.774 12.091 58.774 12.199V17.68C58.792 17.662 58.819 17.59 58.855 17.464C58.981 17.14 59.134 16.744 59.314 16.276C59.494 15.79 59.692 15.331 59.908 14.899C60.124 14.467 60.349 14.098 60.583 13.792C60.835 13.486 61.087 13.333 61.339 13.333C61.663 13.333 61.906 13.414 62.068 13.576C62.248 13.72 62.383 13.909 62.473 14.143C62.563 14.377 62.617 14.629 62.635 14.899C62.653 15.169 62.662 15.43 62.662 15.682C62.662 15.862 62.644 16.159 62.608 16.573C62.572 16.987 62.554 17.608 62.554 18.436C62.554 18.904 62.599 19.327 62.689 19.705C62.779 20.083 62.959 20.272 63.229 20.272C63.427 20.272 63.607 20.182 63.769 20.002C63.931 19.822 64.075 19.597 64.201 19.327C64.345 19.057 64.462 18.769 64.552 18.463C64.642 18.157 64.696 17.869 64.714 17.599C64.732 17.257 64.867 17.086 65.119 17.086C65.281 17.086 65.389 17.14 65.443 17.248C65.497 17.356 65.524 17.482 65.524 17.626V17.68C65.506 18.04 65.434 18.445 65.308 18.895C65.2 19.345 65.029 19.768 64.795 20.164C64.579 20.56 64.291 20.893 63.931 21.163C63.571 21.433 63.13 21.568 62.608 21.568C61.798 21.568 61.276 21.28 61.042 20.704C60.826 20.11 60.718 19.237 60.718 18.085L60.772 16.114Z" fill="black"/>
</svg>
