<svg width="111" height="27" viewBox="0 0 111 27" fill="none" xmlns="http://www.w3.org/2000/svg">
<path d="M22.104 18.808C21.918 19.7173 21.5873 20.6473 21.112 21.598C20.6367 22.5487 20.0683 23.4063 19.407 24.171C18.7457 24.9357 18.012 25.5557 17.206 26.031C16.4 26.527 15.563 26.775 14.695 26.775H14.633C14.0957 26.775 13.5687 26.6407 13.052 26.372C12.5353 26.124 11.9257 25.8553 11.223 25.566C11.1403 25.5247 10.975 25.4833 10.727 25.442C10.4997 25.38 10.2517 25.2973 9.983 25.194C9.735 25.0907 9.49733 24.9563 9.27 24.791C9.06333 24.605 8.929 24.3673 8.867 24.078V12.918C8.867 12.3187 8.836 11.7607 8.774 11.244C8.712 10.7273 8.557 10.3553 8.309 10.128H8.588C9.04267 10.128 9.50767 10.0557 9.983 9.911C10.479 9.76633 10.882 9.694 11.192 9.694C11.3987 9.694 11.5537 9.74567 11.657 9.849C11.781 9.93167 11.843 10.097 11.843 10.345V23.83C12.2357 23.954 12.525 24.078 12.711 24.202C12.9177 24.3053 13.083 24.3983 13.207 24.481C13.3517 24.5637 13.486 24.636 13.61 24.698C13.734 24.7393 13.92 24.76 14.168 24.76C15.1393 24.76 15.966 24.4913 16.648 23.954C17.3507 23.4167 17.9293 22.6933 18.384 21.784C18.8387 20.8747 19.1693 19.831 19.376 18.653C19.6033 17.4543 19.717 16.2143 19.717 14.933C19.717 13.9203 19.593 12.98 19.345 12.112C19.1177 11.244 18.7147 10.4897 18.136 9.849C17.578 9.18767 16.8133 8.671 15.842 8.299C14.8913 7.90633 13.6823 7.69967 12.215 7.679H11.998C9.084 7.679 6.914 8.082 5.488 8.888C4.08267 9.694 3.38 10.779 3.38 12.143C3.38 12.4117 3.43167 12.639 3.535 12.825C3.61767 13.011 3.71067 13.197 3.814 13.383C3.91733 13.569 4.02067 13.7653 4.124 13.972C4.22733 14.1787 4.28933 14.437 4.31 14.747C4.28933 14.7883 4.20667 14.9123 4.062 15.119C3.938 15.3257 3.83467 15.4393 3.752 15.46C3.71067 15.4807 3.61767 15.491 3.473 15.491C3.24567 15.491 2.98733 15.429 2.698 15.305C2.388 15.1603 2.09867 14.9743 1.83 14.747C1.56133 14.499 1.34433 14.2097 1.179 13.879C0.993 13.5483 0.9 13.1867 0.9 12.794C0.9 11.802 1.26167 10.903 1.985 10.097C2.70833 9.27033 3.64867 8.56767 4.806 7.989C5.984 7.38967 7.286 6.935 8.712 6.625C10.1587 6.29433 11.595 6.129 13.021 6.129C13.889 6.129 14.757 6.21167 15.625 6.377C16.493 6.52167 17.3093 6.78 18.074 7.152C18.8593 7.50333 19.562 7.96833 20.182 8.547C20.802 9.105 21.298 9.79733 21.67 10.624C22.0007 11.2853 22.228 11.9983 22.352 12.763C22.476 13.507 22.538 14.2717 22.538 15.057C22.538 16.297 22.3933 17.5473 22.104 18.808ZM32.7428 21.226C32.7428 21.7427 32.6498 22.3213 32.4638 22.962C32.2778 23.6027 31.9885 24.202 31.5958 24.76C31.2031 25.2973 30.6968 25.752 30.0768 26.124C29.4775 26.496 28.7541 26.682 27.9068 26.682C27.1008 26.682 26.4188 26.5373 25.8608 26.248C25.3028 25.9587 24.8378 25.566 24.4658 25.07C24.1145 24.574 23.8561 23.9953 23.6908 23.334C23.5461 22.652 23.4738 21.939 23.4738 21.195C23.4738 20.4717 23.5565 19.676 23.7218 18.808C23.8871 17.94 24.1455 17.134 24.4968 16.39C24.8481 15.6253 25.2925 14.995 25.8298 14.499C26.3671 13.9823 27.0181 13.724 27.7828 13.724C28.1548 13.724 28.5061 13.8067 28.8368 13.972C29.1675 14.1167 29.4568 14.313 29.7048 14.561C29.9528 14.809 30.1491 15.0983 30.2938 15.429C30.4385 15.7597 30.5211 16.1007 30.5418 16.452L30.5728 16.886C30.5728 17.382 30.4901 17.9297 30.3248 18.529C30.1595 19.1077 29.9218 19.6553 29.6118 20.172C29.3018 20.668 28.9195 21.0917 28.4648 21.443C28.0101 21.7737 27.4935 21.939 26.9148 21.939C26.8115 21.939 26.6771 21.9287 26.5118 21.908C26.3671 21.8873 26.2225 21.8563 26.0778 21.815V22.714C26.0778 22.8587 26.1191 23.0653 26.2018 23.334C26.3051 23.6027 26.4498 23.8713 26.6358 24.14C26.8218 24.388 27.0595 24.6153 27.3488 24.822C27.6588 25.008 28.0308 25.101 28.4648 25.101C29.0641 25.101 29.5498 24.9873 29.9218 24.76C30.3145 24.512 30.6348 24.202 30.8828 23.83C31.1308 23.458 31.3168 23.0447 31.4408 22.59C31.5855 22.1147 31.6991 21.66 31.7818 21.226C31.8438 20.9367 31.9058 20.7403 31.9678 20.637C32.0298 20.5337 32.1331 20.482 32.2778 20.482C32.5878 20.482 32.7428 20.6577 32.7428 21.009V21.226ZM29.0848 16.421C29.0848 16.2557 29.0331 16.08 28.9298 15.894C28.8471 15.708 28.6818 15.615 28.4338 15.615C28.0618 15.615 27.7415 15.8113 27.4728 16.204C27.2041 16.5967 26.9768 17.0513 26.7908 17.568C26.6255 18.064 26.5015 18.5497 26.4188 19.025C26.3361 19.4797 26.2948 19.7793 26.2948 19.924V20.017C26.2948 20.203 26.3051 20.358 26.3258 20.482C26.3671 20.5853 26.4808 20.637 26.6668 20.637H26.8218C27.2351 20.637 27.5865 20.482 27.8758 20.172C28.1651 19.862 28.3925 19.49 28.5578 19.056C28.7438 18.622 28.8781 18.1777 28.9608 17.723C29.0435 17.2683 29.0848 16.8963 29.0848 16.607V16.421ZM41.6873 19.273C41.6873 19.583 41.6253 19.8207 41.5013 19.986C41.3979 20.1513 41.2533 20.2753 41.0673 20.358C40.8813 20.4407 40.6643 20.5027 40.4163 20.544C40.1889 20.5647 39.9616 20.5853 39.7343 20.606V20.761C39.7343 21.195 39.6723 21.7427 39.5483 22.404C39.4243 23.0653 39.2383 23.706 38.9903 24.326C38.7629 24.946 38.4633 25.4833 38.0913 25.938C37.7399 26.3927 37.3163 26.6407 36.8203 26.682C36.7169 26.7027 36.6136 26.713 36.5103 26.713C36.4069 26.713 36.3036 26.713 36.2003 26.713C35.2083 26.713 34.4333 26.4753 33.8753 26C33.3173 25.5453 32.9039 24.9667 32.6353 24.264C32.3666 23.5407 32.2013 22.7553 32.1393 21.908C32.0773 21.0607 32.0463 20.2547 32.0463 19.49C32.0463 17.7333 32.2219 15.9457 32.5733 14.127C32.8006 14.1063 33.0073 14.0753 33.1933 14.034C33.3793 13.972 33.5859 13.941 33.8133 13.941C33.8546 13.941 33.9476 13.941 34.0923 13.941C34.2369 13.941 34.3816 13.9513 34.5263 13.972C34.6916 13.9927 34.8363 14.0237 34.9603 14.065C35.0843 14.1063 35.1463 14.158 35.1463 14.22C35.1463 14.3233 35.1359 14.468 35.1153 14.654C35.0946 14.8193 35.0636 15.0053 35.0223 15.212C35.0016 15.398 34.9706 15.584 34.9293 15.77C34.9086 15.956 34.8879 16.111 34.8673 16.235C34.7639 16.9583 34.6813 17.692 34.6193 18.436C34.5573 19.18 34.5263 19.924 34.5263 20.668C34.5263 20.9573 34.5469 21.3603 34.5883 21.877C34.6296 22.373 34.7123 22.869 34.8363 23.365C34.9603 23.861 35.1359 24.295 35.3633 24.667C35.6113 25.0183 35.9316 25.194 36.3243 25.194C36.6963 25.194 36.9959 25.008 37.2233 24.636C37.4506 24.2433 37.6263 23.799 37.7503 23.303C37.8743 22.7863 37.9569 22.28 37.9983 21.784C38.0396 21.2673 38.0603 20.8747 38.0603 20.606C38.0603 20.5027 37.9879 20.389 37.8433 20.265C37.7193 20.141 37.5643 19.9757 37.3783 19.769C37.2129 19.5623 37.0476 19.3143 36.8823 19.025C36.7376 18.7357 36.6446 18.3843 36.6033 17.971V17.32C36.6033 17.1547 36.6033 16.9583 36.6033 16.731C36.6239 16.5037 36.6446 16.2763 36.6653 16.049C36.7066 15.801 36.7479 15.5737 36.7893 15.367C36.8513 15.1397 36.9236 14.964 37.0063 14.84C37.0063 14.8193 37.0373 14.7883 37.0993 14.747C37.1819 14.7057 37.2646 14.6643 37.3473 14.623C37.4299 14.5817 37.5126 14.5507 37.5953 14.53C37.6779 14.4887 37.7296 14.468 37.7503 14.468C37.8123 14.468 37.8949 14.4783 37.9983 14.499C38.1223 14.5197 38.2463 14.5403 38.3703 14.561C38.5149 14.5817 38.6389 14.6127 38.7423 14.654C38.8663 14.6747 38.9489 14.6953 38.9903 14.716C39.0936 14.778 39.1556 14.8813 39.1763 15.026C39.1969 15.15 39.2279 15.2533 39.2693 15.336C39.3726 15.6667 39.4449 15.9767 39.4863 16.266C39.5483 16.5347 39.5793 16.8137 39.5793 17.103C39.5999 17.3717 39.6103 17.661 39.6103 17.971C39.6309 18.2603 39.6516 18.591 39.6723 18.963C39.6723 19.025 39.7653 19.0973 39.9513 19.18C40.1579 19.242 40.2923 19.273 40.3543 19.273C40.6436 19.273 40.8813 19.1903 41.0673 19.025C41.2533 18.8597 41.3773 18.777 41.4393 18.777C41.5426 18.777 41.6046 18.8493 41.6253 18.994C41.6666 19.118 41.6873 19.211 41.6873 19.273ZM54.6269 21.474C54.4822 22.032 54.2445 22.6107 53.9139 23.21C53.6039 23.8093 53.2112 24.3777 52.7359 24.915C52.0332 25.721 51.2582 26.2583 50.4109 26.527C49.5635 26.7957 48.7989 26.93 48.1169 26.93C46.0709 26.93 44.5519 26.1447 43.5599 24.574C42.5885 23.0033 42.1029 20.7403 42.1029 17.785C42.1029 16.235 42.2372 14.7883 42.5059 13.445C42.7952 12.1017 43.1775 10.934 43.6529 9.942C44.1282 8.92933 44.6862 8.13367 45.3269 7.555C45.9882 6.97633 46.6909 6.687 47.4349 6.687H48.0859C48.4579 6.687 48.7679 6.73867 49.0159 6.842C49.2845 6.94533 49.5325 7.07967 49.7599 7.245C50.0079 7.38967 50.2559 7.555 50.5039 7.741C50.7519 7.90633 51.0619 8.07167 51.4339 8.237C52.0539 8.50567 52.4672 9.00167 52.6739 9.725C52.8805 10.4277 52.9839 11.182 52.9839 11.988C52.9839 12.2773 52.9735 12.577 52.9529 12.887C52.9529 13.197 52.9012 13.4863 52.7979 13.755C52.6945 14.003 52.5292 14.22 52.3019 14.406C52.0745 14.592 51.7439 14.7057 51.3099 14.747C50.7105 14.747 50.2972 14.5403 50.0699 14.127C49.8425 13.7137 49.7289 13.2693 49.7289 12.794C49.7289 12.5253 49.7495 12.205 49.7909 11.833C49.8322 11.4403 49.8529 11.0477 49.8529 10.655C49.8529 10.1383 49.7702 9.68367 49.6049 9.291C49.4602 8.89833 49.1502 8.702 48.6749 8.702C47.9102 8.702 47.2799 8.981 46.7839 9.539C46.3085 10.0763 45.9262 10.7687 45.6369 11.616C45.3682 12.4633 45.1719 13.4037 45.0479 14.437C44.9445 15.4703 44.8929 16.4727 44.8929 17.444C44.8929 18.436 44.9135 19.3557 44.9549 20.203C45.0169 21.0297 45.1512 21.7737 45.3579 22.435C45.5645 23.0963 45.8642 23.675 46.2569 24.171C46.6495 24.6463 47.1972 25.039 47.8999 25.349C48.1892 25.473 48.5095 25.535 48.8609 25.535C49.3775 25.535 49.8632 25.4213 50.3179 25.194C50.7932 24.946 51.2065 24.6257 51.5579 24.233C51.9092 23.8403 52.1882 23.396 52.3949 22.9C52.6015 22.3833 52.7049 21.8563 52.7049 21.319C52.7049 20.7817 52.7979 20.3063 52.9839 19.893C53.1905 19.4797 53.5212 19.273 53.9759 19.273C54.3065 19.273 54.5235 19.3763 54.6269 19.583C54.7302 19.7897 54.7819 20.0273 54.7819 20.296C54.7819 20.7713 54.7302 21.164 54.6269 21.474ZM65.7072 17.134C65.7899 16.9893 65.9345 16.917 66.1412 16.917C66.2445 16.917 66.3169 16.979 66.3582 17.103C66.3995 17.227 66.4202 17.3303 66.4202 17.413C66.3995 18.0537 66.2549 18.6323 65.9862 19.149C65.7382 19.645 65.4695 20.079 65.1802 20.451C65.0149 20.6783 64.8289 20.885 64.6222 21.071C64.4362 21.257 64.2399 21.4327 64.0332 21.598C64.0125 21.9493 63.9919 22.1973 63.9712 22.342C63.9712 22.466 63.9609 22.5693 63.9402 22.652C63.8989 22.962 63.7955 23.3547 63.6302 23.83C63.4649 24.3053 63.2272 24.7703 62.9172 25.225C62.6279 25.6797 62.2662 26.062 61.8322 26.372C61.4189 26.7027 60.9332 26.868 60.3752 26.868C60.1892 26.868 59.9722 26.8473 59.7242 26.806C59.4969 26.7647 59.2592 26.7027 59.0112 26.62C58.7632 26.558 58.5255 26.4753 58.2982 26.372C58.0709 26.2893 57.8745 26.1963 57.7092 26.093C57.1925 25.8037 56.7689 25.4627 56.4382 25.07C56.1075 24.6773 55.8492 24.264 55.6632 23.83C55.4979 23.3753 55.3842 22.9207 55.3222 22.466C55.2602 21.9907 55.2292 21.536 55.2292 21.102C55.2292 20.358 55.3015 19.6037 55.4462 18.839C55.6115 18.0743 55.8079 17.3407 56.0352 16.638C56.2625 15.9353 56.5209 15.305 56.8102 14.747C57.0995 14.189 57.3785 13.755 57.6472 13.445C57.9159 13.1557 58.2155 12.9593 58.5462 12.856C58.8769 12.732 59.1765 12.67 59.4452 12.67C59.7759 12.67 60.1065 12.7527 60.4372 12.918C60.7679 13.0833 61.0882 13.29 61.3982 13.538C61.7082 13.786 62.0079 14.0753 62.2972 14.406C62.6072 14.716 62.8965 15.026 63.1652 15.336C63.3719 15.5633 63.5269 15.9353 63.6302 16.452C63.7335 16.948 63.8162 17.4543 63.8782 17.971C63.9195 18.2603 63.9505 18.5703 63.9712 18.901C63.9919 19.2317 64.0022 19.5727 64.0022 19.924C64.3122 19.676 64.5602 19.4177 64.7462 19.149C64.9322 18.8597 65.0769 18.591 65.1802 18.343C65.3042 18.095 65.3972 17.8677 65.4592 17.661C65.5419 17.4337 65.6245 17.258 65.7072 17.134ZM62.2042 19.8C62.2042 19.7173 62.1939 19.5313 62.1732 19.242C62.1732 18.9527 62.1525 18.6117 62.1112 18.219C62.0905 17.8263 62.0389 17.4233 61.9562 17.01C61.8942 16.576 61.7909 16.1833 61.6462 15.832C61.5222 15.4807 61.3569 15.1913 61.1502 14.964C60.9435 14.716 60.6852 14.592 60.3752 14.592C60.0652 14.592 59.7655 14.716 59.4762 14.964C59.1869 15.212 58.9285 15.5323 58.7012 15.925C58.4739 16.3177 58.2879 16.762 58.1432 17.258C58.0192 17.754 57.9572 18.2397 57.9572 18.715C57.9572 19.5417 58.1225 20.1513 58.4532 20.544C58.7839 20.916 59.3522 21.102 60.1582 21.102C60.7575 21.102 61.2432 21.009 61.6152 20.823C62.0079 20.637 62.2042 20.4923 62.2042 20.389V19.8ZM62.0492 22.342C61.8012 22.5073 61.4602 22.6313 61.0262 22.714C60.5922 22.7967 60.2305 22.838 59.9412 22.838C59.3832 22.838 58.9492 22.7967 58.6392 22.714C58.3499 22.6313 58.0295 22.466 57.6782 22.218L57.6472 22.869C57.6472 23.0963 57.6782 23.334 57.7402 23.582C57.8022 23.83 57.8952 24.0573 58.0192 24.264C58.1639 24.4707 58.3602 24.6463 58.6082 24.791C58.8562 24.915 59.1662 24.977 59.5382 24.977C59.9929 24.977 60.3752 24.8943 60.6852 24.729C61.0159 24.543 61.2742 24.3157 61.4602 24.047C61.6669 23.7783 61.8115 23.489 61.8942 23.179C61.9975 22.869 62.0492 22.59 62.0492 22.342ZM70.3308 19.242C70.0208 19.676 69.7625 20.1617 69.5558 20.699C69.3698 21.2157 69.2045 21.7633 69.0598 22.342C68.9151 22.9 68.7911 23.4683 68.6878 24.047C68.6051 24.605 68.5121 25.1423 68.4088 25.659C68.3675 25.783 68.2021 25.8657 67.9128 25.907C67.6441 25.9483 67.4478 25.969 67.3238 25.969C66.9518 25.969 66.6418 25.9483 66.3938 25.907C66.1665 25.8657 65.9908 25.7727 65.8668 25.628C65.7428 25.4627 65.6498 25.225 65.5878 24.915C65.5258 24.5843 65.4741 24.1503 65.4328 23.613L65.8358 14.406C65.8358 14.1373 65.9805 14.003 66.2698 14.003C66.3731 14.003 66.5178 14.0237 66.7038 14.065C66.8898 14.0857 67.0861 14.127 67.2928 14.189C67.4995 14.251 67.6751 14.3337 67.8198 14.437C67.9645 14.5197 68.0368 14.623 68.0368 14.747V21.04C68.0575 21.0193 68.0885 20.9367 68.1298 20.792C68.2745 20.42 68.4501 19.9653 68.6568 19.428C68.8635 18.87 69.0908 18.343 69.3388 17.847C69.5868 17.351 69.8451 16.9273 70.1138 16.576C70.4031 16.2247 70.6925 16.049 70.9818 16.049C71.3538 16.049 71.6328 16.142 71.8188 16.328C72.0255 16.4933 72.1805 16.7103 72.2838 16.979C72.3871 17.2477 72.4491 17.537 72.4698 17.847C72.4905 18.157 72.5008 18.4567 72.5008 18.746C72.5008 18.9527 72.4801 19.2937 72.4388 19.769C72.3975 20.2443 72.3768 20.9573 72.3768 21.908C72.3768 22.4453 72.4285 22.931 72.5318 23.365C72.6351 23.799 72.8418 24.016 73.1518 24.016C73.3791 24.016 73.5858 23.9127 73.7718 23.706C73.9578 23.4993 74.1231 23.241 74.2678 22.931C74.4331 22.621 74.5675 22.2903 74.6708 21.939C74.7741 21.5877 74.8361 21.257 74.8568 20.947C74.8775 20.5543 75.0325 20.358 75.3218 20.358C75.5078 20.358 75.6318 20.42 75.6938 20.544C75.7558 20.668 75.7868 20.8127 75.7868 20.978V21.04C75.7661 21.4533 75.6835 21.9183 75.5388 22.435C75.4148 22.9517 75.2185 23.4373 74.9498 23.892C74.7018 24.3467 74.3711 24.729 73.9578 25.039C73.5445 25.349 73.0381 25.504 72.4388 25.504C71.5088 25.504 70.9095 25.1733 70.6408 24.512C70.3928 23.83 70.2688 22.8277 70.2688 21.505L70.3308 19.242ZM79.7761 19.242C79.4661 19.676 79.2078 20.1617 79.0011 20.699C78.8151 21.2157 78.6498 21.7633 78.5051 22.342C78.3604 22.9 78.2364 23.4683 78.1331 24.047C78.0504 24.605 77.9574 25.1423 77.8541 25.659C77.8128 25.783 77.6474 25.8657 77.3581 25.907C77.0894 25.9483 76.8931 25.969 76.7691 25.969C76.3971 25.969 76.0871 25.9483 75.8391 25.907C75.6118 25.8657 75.4361 25.7727 75.3121 25.628C75.1881 25.4627 75.0951 25.225 75.0331 24.915C74.9711 24.5843 74.9194 24.1503 74.8781 23.613L75.2811 14.406C75.2811 14.1373 75.4258 14.003 75.7151 14.003C75.8184 14.003 75.9631 14.0237 76.1491 14.065C76.3351 14.0857 76.5314 14.127 76.7381 14.189C76.9448 14.251 77.1204 14.3337 77.2651 14.437C77.4098 14.5197 77.4821 14.623 77.4821 14.747V21.04C77.5028 21.0193 77.5338 20.9367 77.5751 20.792C77.7198 20.42 77.8954 19.9653 78.1021 19.428C78.3088 18.87 78.5361 18.343 78.7841 17.847C79.0321 17.351 79.2904 16.9273 79.5591 16.576C79.8484 16.2247 80.1378 16.049 80.4271 16.049C80.7991 16.049 81.0781 16.142 81.2641 16.328C81.4708 16.4933 81.6258 16.7103 81.7291 16.979C81.8324 17.2477 81.8944 17.537 81.9151 17.847C81.9358 18.157 81.9461 18.4567 81.9461 18.746C81.9461 18.9527 81.9254 19.2937 81.8841 19.769C81.8428 20.2443 81.8221 20.9573 81.8221 21.908C81.8221 22.4453 81.8738 22.931 81.9771 23.365C82.0804 23.799 82.2871 24.016 82.5971 24.016C82.8244 24.016 83.0311 23.9127 83.2171 23.706C83.4031 23.4993 83.5684 23.241 83.7131 22.931C83.8784 22.621 84.0128 22.2903 84.1161 21.939C84.2194 21.5877 84.2814 21.257 84.3021 20.947C84.3228 20.5543 84.4778 20.358 84.7671 20.358C84.9531 20.358 85.0771 20.42 85.1391 20.544C85.2011 20.668 85.2321 20.8127 85.2321 20.978V21.04C85.2114 21.4533 85.1288 21.9183 84.9841 22.435C84.8601 22.9517 84.6638 23.4373 84.3951 23.892C84.1471 24.3467 83.8164 24.729 83.4031 25.039C82.9898 25.349 82.4834 25.504 81.8841 25.504C80.9541 25.504 80.3548 25.1733 80.0861 24.512C79.8381 23.83 79.7141 22.8277 79.7141 21.505L79.7761 19.242ZM93.5924 21.226C93.5924 21.7427 93.4994 22.3213 93.3134 22.962C93.1274 23.6027 92.8381 24.202 92.4454 24.76C92.0528 25.2973 91.5464 25.752 90.9264 26.124C90.3271 26.496 89.6038 26.682 88.7564 26.682C87.9504 26.682 87.2684 26.5373 86.7104 26.248C86.1524 25.9587 85.6874 25.566 85.3154 25.07C84.9641 24.574 84.7058 23.9953 84.5404 23.334C84.3958 22.652 84.3234 21.939 84.3234 21.195C84.3234 20.4717 84.4061 19.676 84.5714 18.808C84.7368 17.94 84.9951 17.134 85.3464 16.39C85.6978 15.6253 86.1421 14.995 86.6794 14.499C87.2168 13.9823 87.8678 13.724 88.6324 13.724C89.0044 13.724 89.3558 13.8067 89.6864 13.972C90.0171 14.1167 90.3064 14.313 90.5544 14.561C90.8024 14.809 90.9988 15.0983 91.1434 15.429C91.2881 15.7597 91.3708 16.1007 91.3914 16.452L91.4224 16.886C91.4224 17.382 91.3398 17.9297 91.1744 18.529C91.0091 19.1077 90.7714 19.6553 90.4614 20.172C90.1514 20.668 89.7691 21.0917 89.3144 21.443C88.8598 21.7737 88.3431 21.939 87.7644 21.939C87.6611 21.939 87.5268 21.9287 87.3614 21.908C87.2168 21.8873 87.0721 21.8563 86.9274 21.815V22.714C86.9274 22.8587 86.9688 23.0653 87.0514 23.334C87.1548 23.6027 87.2994 23.8713 87.4854 24.14C87.6714 24.388 87.9091 24.6153 88.1984 24.822C88.5084 25.008 88.8804 25.101 89.3144 25.101C89.9138 25.101 90.3994 24.9873 90.7714 24.76C91.1641 24.512 91.4844 24.202 91.7324 23.83C91.9804 23.458 92.1664 23.0447 92.2904 22.59C92.4351 22.1147 92.5488 21.66 92.6314 21.226C92.6934 20.9367 92.7554 20.7403 92.8174 20.637C92.8794 20.5337 92.9828 20.482 93.1274 20.482C93.4374 20.482 93.5924 20.6577 93.5924 21.009V21.226ZM89.9344 16.421C89.9344 16.2557 89.8828 16.08 89.7794 15.894C89.6968 15.708 89.5314 15.615 89.2834 15.615C88.9114 15.615 88.5911 15.8113 88.3224 16.204C88.0538 16.5967 87.8264 17.0513 87.6404 17.568C87.4751 18.064 87.3511 18.5497 87.2684 19.025C87.1858 19.4797 87.1444 19.7793 87.1444 19.924V20.017C87.1444 20.203 87.1548 20.358 87.1754 20.482C87.2168 20.5853 87.3304 20.637 87.5164 20.637H87.6714C88.0848 20.637 88.4361 20.482 88.7254 20.172C89.0148 19.862 89.2421 19.49 89.4074 19.056C89.5934 18.622 89.7278 18.1777 89.8104 17.723C89.8931 17.2683 89.9344 16.8963 89.9344 16.607V16.421ZM102.041 23.21C101.545 24.388 100.904 25.2457 100.119 25.783C99.3542 26.2997 98.4449 26.558 97.3909 26.558C97.2876 26.558 97.1842 26.558 97.0809 26.558C96.9982 26.558 96.9052 26.5477 96.8019 26.527C96.2852 26.465 95.7892 26.2997 95.3139 26.031C94.8386 25.783 94.4252 25.4317 94.0739 24.977C93.7226 24.5017 93.4436 23.9333 93.2369 23.272C93.0302 22.59 92.9269 21.815 92.9269 20.947C92.9269 20.1203 93.0302 19.2523 93.2369 18.343C93.4642 17.4337 93.9086 16.607 94.5699 15.863C95.1486 15.2017 95.8202 14.6747 96.5849 14.282C97.3702 13.8893 98.1659 13.693 98.9719 13.693C99.3646 13.693 99.7159 13.755 100.026 13.879C100.357 13.9823 100.543 14.1167 100.584 14.282C100.625 14.5093 100.646 14.7987 100.646 15.15C100.667 15.4807 100.677 15.925 100.677 16.483C100.677 16.9583 100.636 17.3097 100.553 17.537C100.491 17.7643 100.346 17.878 100.119 17.878C99.8709 17.8573 99.6952 17.7333 99.5919 17.506C99.4886 17.258 99.3852 16.9997 99.2819 16.731C99.1786 16.4417 99.0442 16.1833 98.8789 15.956C98.7136 15.708 98.4449 15.5737 98.0729 15.553C97.5356 15.553 97.0912 15.7597 96.7399 16.173C96.3886 16.5863 96.1096 17.072 95.9029 17.63C95.7169 18.188 95.5826 18.746 95.4999 19.304C95.4379 19.862 95.4069 20.296 95.4069 20.606C95.4069 21.8047 95.5826 22.838 95.9339 23.706C96.3059 24.5533 96.9569 25.0183 97.8869 25.101L98.2279 25.132C98.8686 25.132 99.3852 24.977 99.7779 24.667C100.171 24.3363 100.481 23.985 100.708 23.613C100.956 23.2203 101.142 22.869 101.266 22.559C101.411 22.2283 101.555 22.063 101.7 22.063H101.793C102.062 22.0837 102.196 22.2593 102.196 22.59C102.196 22.7347 102.144 22.9413 102.041 23.21ZM102.696 20.389C102.717 19.335 102.748 18.2603 102.789 17.165C102.83 16.0697 102.872 15.057 102.913 14.127C102.913 13.9617 102.748 13.848 102.417 13.786C102.086 13.724 101.714 13.662 101.301 13.6C100.888 13.538 100.516 13.445 100.185 13.321C99.8543 13.1763 99.689 12.949 99.689 12.639C99.689 12.3703 99.9577 12.2153 100.495 12.174C101.032 12.1327 101.828 12.112 102.882 12.112C102.965 12.112 103.016 11.988 103.037 11.74C103.078 11.492 103.099 11.182 103.099 10.81C103.12 10.4173 103.13 10.004 103.13 9.57C103.151 9.136 103.171 8.733 103.192 8.361C103.213 7.96833 103.244 7.648 103.285 7.4C103.347 7.152 103.419 7.028 103.502 7.028C103.605 7.028 103.791 7.04867 104.06 7.09C104.329 7.13133 104.608 7.19333 104.897 7.276C105.186 7.338 105.434 7.42067 105.641 7.524C105.868 7.62733 105.982 7.741 105.982 7.865L105.641 11.895C105.641 12.019 105.744 12.112 105.951 12.174C106.178 12.2153 106.457 12.2463 106.788 12.267C107.139 12.267 107.501 12.267 107.873 12.267C108.266 12.267 108.627 12.298 108.958 12.36C109.309 12.422 109.588 12.5253 109.795 12.67C110.022 12.794 110.136 12.9903 110.136 13.259C110.136 13.3003 110.115 13.3727 110.074 13.476C110.033 13.5587 109.981 13.6 109.919 13.6C109.878 13.6 109.816 13.569 109.733 13.507C109.671 13.445 109.485 13.414 109.175 13.414C109.092 13.414 108.865 13.4243 108.493 13.445C108.121 13.4657 107.728 13.4967 107.315 13.538C106.902 13.5793 106.519 13.631 106.168 13.693C105.837 13.7343 105.651 13.7963 105.61 13.879C105.589 13.9203 105.558 14.1683 105.517 14.623C105.496 15.057 105.465 15.6357 105.424 16.359C105.403 17.0823 105.383 17.9193 105.362 18.87C105.341 19.8 105.331 20.7817 105.331 21.815C105.331 22.2077 105.352 22.59 105.393 22.962C105.434 23.334 105.496 23.675 105.579 23.985C105.662 24.2743 105.765 24.512 105.889 24.698C106.034 24.884 106.199 24.977 106.385 24.977C106.654 24.977 106.902 24.8633 107.129 24.636C107.356 24.4087 107.563 24.0987 107.749 23.706C107.935 23.3133 108.1 22.869 108.245 22.373C108.39 21.877 108.514 21.3707 108.617 20.854C108.679 20.544 108.751 20.327 108.834 20.203C108.917 20.0583 109.041 19.986 109.206 19.986C109.351 19.986 109.475 20.0377 109.578 20.141C109.702 20.2237 109.764 20.4303 109.764 20.761C109.764 20.9677 109.754 21.102 109.733 21.164C109.671 21.536 109.547 22.0527 109.361 22.714C109.196 23.3547 108.958 23.9953 108.648 24.636C108.359 25.256 107.997 25.8037 107.563 26.279C107.129 26.7543 106.623 26.992 106.044 26.992C105.486 26.992 105 26.8267 104.587 26.496C104.174 26.186 103.822 25.752 103.533 25.194C103.264 24.6153 103.058 23.9437 102.913 23.179C102.768 22.3937 102.696 21.5567 102.696 20.668V20.389Z" fill="black"/>
</svg>
