<svg width="20" height="20" viewBox="0 0 20 20" fill="none" xmlns="http://www.w3.org/2000/svg">
<path d="M14.1665 18.3334C13.4721 18.3334 12.8818 18.0904 12.3957 17.6042C11.9096 17.1181 11.6665 16.5279 11.6665 15.8334C11.6665 15.7501 11.6873 15.5556 11.729 15.2501L5.87484 11.8334C5.65262 12.0417 5.39567 12.2049 5.104 12.323C4.81234 12.4411 4.49984 12.5001 4.1665 12.5001C3.47206 12.5001 2.88178 12.257 2.39567 11.7709C1.90956 11.2848 1.6665 10.6945 1.6665 10.0001C1.6665 9.30564 1.90956 8.71536 2.39567 8.22925C2.88178 7.74314 3.47206 7.50008 4.1665 7.50008C4.49984 7.50008 4.81234 7.55911 5.104 7.67717C5.39567 7.79522 5.65262 7.95842 5.87484 8.16675L11.729 4.75008C11.7012 4.65286 11.6839 4.55911 11.6769 4.46883C11.67 4.37855 11.6665 4.27786 11.6665 4.16675C11.6665 3.4723 11.9096 2.88203 12.3957 2.39591C12.8818 1.9098 13.4721 1.66675 14.1665 1.66675C14.8609 1.66675 15.4512 1.9098 15.9373 2.39591C16.4234 2.88203 16.6665 3.4723 16.6665 4.16675C16.6665 4.86119 16.4234 5.45147 15.9373 5.93758C15.4512 6.42369 14.8609 6.66675 14.1665 6.66675C13.8332 6.66675 13.5207 6.60772 13.229 6.48967C12.9373 6.37161 12.6804 6.20842 12.4582 6.00008L6.604 9.41675C6.63178 9.51397 6.64914 9.60772 6.65609 9.698C6.66303 9.78828 6.6665 9.88897 6.6665 10.0001C6.6665 10.1112 6.66303 10.2119 6.65609 10.3022C6.64914 10.3924 6.63178 10.4862 6.604 10.5834L12.4582 14.0001C12.6804 13.7917 12.9373 13.6286 13.229 13.5105C13.5207 13.3924 13.8332 13.3334 14.1665 13.3334C14.8609 13.3334 15.4512 13.5765 15.9373 14.0626C16.4234 14.5487 16.6665 15.139 16.6665 15.8334C16.6665 16.5279 16.4234 17.1181 15.9373 17.6042C15.4512 18.0904 14.8609 18.3334 14.1665 18.3334Z" fill="#1D1B20"/>
</svg>
